<svg width="62" height="62" viewBox="0 0 62 62" fill="none" xmlns="http://www.w3.org/2000/svg">
<g id="117.caution">
<path id="Vector" d="M56.8334 31.0003C56.8334 16.733 45.2674 5.16699 31.0001 5.16699C16.7327 5.16699 5.16675 16.733 5.16675 31.0003C5.16675 45.2676 16.7327 56.8337 31.0001 56.8337C45.2674 56.8337 56.8334 45.2676 56.8334 31.0003Z" fill="url(#paint0_linear_5373_3577)"/>
<path id="Vector_2" d="M32.8136 16.792H29.1856C28.8343 16.7914 28.4866 16.8546 28.1639 16.9776C27.8412 17.1006 27.5504 17.2809 27.3094 17.5072C27.0683 17.7336 26.8821 18.0013 26.7623 18.2938C26.6425 18.5864 26.5915 18.8976 26.6125 19.2082L27.7447 36.167H34.2287L35.3866 19.2082C35.4077 18.8976 35.3567 18.5864 35.2369 18.2938C35.117 18.0013 34.9309 17.7336 34.6898 17.5072C34.4487 17.2809 34.1579 17.1006 33.8352 16.9776C33.5126 16.8546 33.1649 16.7914 32.8136 16.792Z" fill="white"/>
<path id="Vector_3" d="M31 47.4307C33.1401 47.4307 34.875 45.6958 34.875 43.5557C34.875 41.4156 33.1401 39.6807 31 39.6807C28.8599 39.6807 27.125 41.4156 27.125 43.5557C27.125 45.6958 28.8599 47.4307 31 47.4307Z" fill="white"/>
</g>
<defs>
<linearGradient id="paint0_linear_5373_3577" x1="31.0001" y1="5.16699" x2="31.0001" y2="56.8337" gradientUnits="userSpaceOnUse">
<stop stop-color="#3A6CFF"/>
<stop offset="1" stop-color="#FFE4E0"/>
</linearGradient>
</defs>
</svg>
