<svg width="24" height="24" viewBox="0 0 24 24" fill="none" xmlns="http://www.w3.org/2000/svg">
<g id="Icon_24">
<path id="Vector" d="M4.40628 15.1064L4.09815 15.9486C3.72841 16.9346 4.44736 18.0028 5.51552 18.0028H18.6826C19.7097 18.0028 20.4286 16.9757 20.0589 16.0103L19.7097 15.1064C19.4221 14.3464 19.1756 13.0523 19.1756 12.2306V10.5873C19.1756 6.70494 16.2587 3.19235 12.3764 3.00748C8.30916 2.8226 4.94035 6.0887 4.94035 10.1149V12.2101C4.94035 13.1961 4.75548 14.1821 4.40628 15.1064Z" stroke="#010101" stroke-width="1.5" stroke-linecap="round" stroke-linejoin="round"/>
<path id="Vector_2" d="M14.9646 18.5779C14.9646 20.1802 13.6705 21.4948 12.0477 21.4948C10.425 21.4948 9.13086 20.2007 9.13086 18.5779" stroke="#010101" stroke-width="1.5" stroke-linecap="round" stroke-linejoin="round"/>
</g>
</svg>
