<svg xmlns="http://www.w3.org/2000/svg" width="21" height="21" viewBox="0 0 21 21" fill="none">
  <g clip-path="url(#clip0_1093_14830)">
    <path d="M13.0246 10.6524C13.0246 10.7729 13.0054 10.885 12.9669 10.9889C12.9286 11.0927 12.8626 11.1914 12.7689 11.2851L8.27464 15.7794C8.13614 15.9177 7.96464 15.991 7.76014 15.9994C7.5558 16.0077 7.37605 15.9344 7.22089 15.7794C7.07605 15.6344 7.00364 15.4587 7.00364 15.2524C7.00364 15.046 7.07605 14.8704 7.22089 14.7254L11.2786 10.6524L7.22089 6.57936C7.08239 6.44086 7.00897 6.26936 7.00064 6.06486C6.9923 5.86036 7.06572 5.68053 7.22089 5.52536C7.36572 5.38053 7.5413 5.30811 7.74764 5.30811C7.95414 5.30811 8.1298 5.38053 8.27464 5.52536L12.7689 10.0196C12.8626 10.1133 12.9286 10.212 12.9669 10.3159C13.0054 10.4197 13.0246 10.5319 13.0246 10.6524Z" fill="#909090"/>
  </g>
  <defs>
    <clipPath id="clip0_1093_14830">
      <rect width="21" height="21" fill="white"/>
    </clipPath>
  </defs>
</svg>
