<svg width="70" height="71" viewBox="0 0 70 71" fill="none" xmlns="http://www.w3.org/2000/svg">
<path d="M35 70.5C54.33 70.5 70 54.83 70 35.5C70 16.17 54.33 0.5 35 0.5C15.67 0.5 0 16.17 0 35.5C0 54.83 15.67 70.5 35 70.5Z" fill="#F3F3F3"/>
<path d="M10.9623 44.9952C14.2546 44.9952 16.9236 42.8671 16.9236 40.242C16.9236 37.6169 14.2546 35.4888 10.9623 35.4888C7.66994 35.4888 5.00098 37.6169 5.00098 40.242C5.00098 42.8671 7.66994 44.9952 10.9623 44.9952Z" fill="#D0D0D0"/>
<path d="M59.037 44.9952C62.3293 44.9952 64.9983 42.8671 64.9983 40.242C64.9983 37.6169 62.3293 35.4888 59.037 35.4888C55.7446 35.4888 53.0757 37.6169 53.0757 40.242C53.0757 42.8671 55.7446 44.9952 59.037 44.9952Z" fill="#D0D0D0"/>
<path d="M48.1078 33.6146C50.1344 33.6146 51.7772 31.9718 51.7772 29.9452C51.7772 27.9187 50.1344 26.2759 48.1078 26.2759C46.0813 26.2759 44.4385 27.9187 44.4385 29.9452C44.4385 31.9718 46.0813 33.6146 48.1078 33.6146Z" fill="#B5B5B5"/>
<path d="M21.892 33.6146C23.9185 33.6146 25.5614 31.9718 25.5614 29.9452C25.5614 27.9187 23.9185 26.2759 21.892 26.2759C19.8655 26.2759 18.2227 27.9187 18.2227 29.9452C18.2227 31.9718 19.8655 33.6146 21.892 33.6146Z" fill="#B5B5B5"/>
<path d="M42.4536 43.2778L28.7072 48.2917C27.8268 48.6128 26.857 48.1613 26.5359 47.281C26.2148 46.4006 26.6662 45.4307 27.5466 45.1096L41.293 40.0957C42.1734 39.7746 43.1432 40.2261 43.4643 41.1064C43.7854 41.9868 43.334 42.9567 42.4536 43.2778Z" fill="#B5B5B5"/>
<path d="M28.3273 26.5806C27.6273 26.5806 26.9838 26.1516 26.7354 25.4516C26.6563 25.2371 25.0418 21.3306 17.6806 21.8161C16.7435 21.8839 15.9418 21.1726 15.8741 20.2468C15.8064 19.3097 16.5176 18.508 17.4434 18.4403C27.5709 17.7403 29.8289 24.0629 29.9193 24.3339C30.2241 25.2145 29.7499 26.1855 28.858 26.479C28.6773 26.5355 28.4967 26.5693 28.316 26.5693L28.3273 26.5806Z" fill="#B5B5B5"/>
<path d="M41.6611 26.5574C41.4692 26.5574 41.2773 26.5236 41.0966 26.4558C40.2273 26.1397 39.7644 25.2026 40.0579 24.3332C40.1482 24.0623 42.4063 17.751 52.5337 18.4397C53.4708 18.5074 54.1708 19.3091 54.1031 20.2461C54.0353 21.1832 53.2337 21.8832 52.2966 21.8155C44.9015 21.3187 43.3095 25.2816 43.2418 25.451C42.9821 26.1284 42.3386 26.5574 41.6498 26.5574H41.6611Z" fill="#B5B5B5"/>
</svg>
