<svg width="70" height="70" viewBox="0 0 70 70" fill="none" xmlns="http://www.w3.org/2000/svg">
<path d="M35 70C54.33 70 70 54.33 70 35C70 15.67 54.33 0 35 0C15.67 0 0 15.67 0 35C0 54.33 15.67 70 35 70Z" fill="#D9E3FF"/>
<path d="M24.2969 41.2778V44.3036C24.2969 45.3085 25.234 46.1214 26.3969 46.1214H43.7953C44.9469 46.1214 45.8953 45.3085 45.8953 44.3036V42.2262" fill="#A0B8FF"/>
<path d="M35 56.6206C25.55 56.6206 17.8726 49.7335 17.8726 41.277C17.8726 40.3399 18.629 39.5835 19.5661 39.5835H50.4451C51.3822 39.5835 52.1387 40.3399 52.1387 41.277C52.1387 49.7335 44.45 56.6206 35.0113 56.6206H35ZM21.3951 42.9706C22.3435 48.7625 28.079 53.2335 35 53.2335C41.9209 53.2335 47.6564 48.7625 48.6048 42.9706H21.3951Z" fill="#4171FF"/>
<path d="M12.6791 42.0787C15.9714 42.0787 18.6404 39.9506 18.6404 37.3255C18.6404 34.7004 15.9714 32.5723 12.6791 32.5723C9.38673 32.5723 6.71777 34.7004 6.71777 37.3255C6.71777 39.9506 9.38673 42.0787 12.6791 42.0787Z" fill="#A0B8FF"/>
<path d="M57.3216 41.2774C60.614 41.2774 63.2829 39.1494 63.2829 36.5242C63.2829 33.8991 60.614 31.771 57.3216 31.771C54.0293 31.771 51.3604 33.8991 51.3604 36.5242C51.3604 39.1494 54.0293 41.2774 57.3216 41.2774Z" fill="#A0B8FF"/>
<path d="M26.8487 29.1744C26.4423 29.1744 26.0245 29.0276 25.7084 28.734L17.5003 21.2147C16.8116 20.5824 16.7665 19.5098 17.3987 18.8211C18.031 18.1324 19.1036 18.0873 19.7923 18.7195L28.0003 26.2389C28.689 26.8711 28.7342 27.9437 28.1019 28.6324C27.7632 28.9937 27.3116 29.1856 26.8487 29.1856V29.1744Z" fill="#4171FF"/>
<path d="M18.6407 36.694C18.1778 36.694 17.7262 36.5133 17.3875 36.1407C16.7552 35.452 16.8004 34.3794 17.4891 33.7472L25.6972 26.2278C26.3859 25.5956 27.4585 25.6407 28.0907 26.3294C28.723 27.0181 28.6778 28.0907 27.9891 28.723L19.781 36.2423C19.4536 36.5359 19.0472 36.6827 18.6407 36.6827V36.694Z" fill="#4171FF"/>
<path d="M43.151 29.1744C42.6881 29.1744 42.2365 28.9938 41.8977 28.6212C41.2655 27.9325 41.3106 26.8599 41.9994 26.2276L50.2074 18.7083C50.8961 18.076 51.9687 18.1212 52.601 18.8099C53.2332 19.4986 53.1881 20.5712 52.4994 21.2035L44.2913 28.7228C43.9639 29.0164 43.5574 29.1631 43.151 29.1631V29.1744Z" fill="#4171FF"/>
<path d="M51.36 36.6939C50.9535 36.6939 50.5358 36.5471 50.2196 36.2536L42.0116 28.7342C41.3229 28.102 41.2777 27.0294 41.91 26.3407C42.5422 25.652 43.6148 25.6068 44.3035 26.2391L52.5116 33.7584C53.2003 34.3907 53.2454 35.4632 52.6132 36.152C52.2745 36.5132 51.8229 36.7052 51.36 36.7052V36.6939Z" fill="#4171FF"/>
</svg>
