<svg width="35" height="36" viewBox="0 0 35 36" fill="none" xmlns="http://www.w3.org/2000/svg">
<rect y="0.5" width="35" height="35" rx="17.5" fill="#F3F3F3"/>
<path d="M15.4 11.6667V10.6111H19.6V11.6667H21.7V10.6111C21.6987 9.44572 20.7593 8.50133 19.6 8.5H15.4C14.2408 8.50133 13.3014 9.44572 13.3 10.6111V11.6667H15.4Z" fill="#4171FF"/>
<path d="M14.35 21.1666C13.7703 21.1667 13.3002 20.6944 13.3 20.1116C13.3 20.1114 13.3 20.1117 13.3 20.1116V17.9999C13.3 17.4169 13.7701 16.9443 14.35 16.9443C14.93 16.9443 15.4 17.4169 15.4 17.9999V20.111C15.4002 20.6938 14.9298 21.1664 14.35 21.1666C14.3502 21.1666 14.3499 21.1666 14.35 21.1666ZM20.65 21.1666C20.0703 21.1667 19.6002 20.6944 19.6 20.1116C19.6 20.1114 19.6 20.1117 19.6 20.1116V17.9999C19.6 17.4169 20.0701 16.9443 20.65 16.9443C21.23 16.9443 21.7 17.4169 21.7 17.9999V20.111C21.7002 20.6938 21.2298 21.1664 20.65 21.1666C20.6502 21.1666 20.6499 21.1666 20.65 21.1666Z" fill="#ECF1FF"/>
<path d="M25.9 11.6667H9.1C7.9402 11.6667 7 12.6119 7 13.7779V16.9445C7 18.1105 7.9402 19.0556 9.1 19.0556H13.3V18.0001C13.3 17.4171 13.7701 16.9445 14.35 16.9445C14.9299 16.9445 15.4 17.4171 15.4 18.0001V19.0556H19.6V18.0001C19.6 17.4171 20.0701 16.9445 20.65 16.9445C21.2299 16.9445 21.7 17.4171 21.7 18.0001V19.0556H25.9C27.0598 19.0556 28 18.1105 28 16.9445V13.7779C28 12.6119 27.0598 11.6667 25.9 11.6667Z" fill="#A0B8FF"/>
<path d="M25.9 19.0554H21.7V20.111C21.7 20.694 21.2299 21.1666 20.65 21.1666C20.0701 21.1666 19.6 20.694 19.6 20.111V19.0554H15.4V20.111C15.4 20.694 14.9299 21.1666 14.35 21.1666C13.7701 21.1666 13.3 20.694 13.3 20.111V19.0554H9.1C7.9402 19.0554 7 18.1103 7 16.9443V25.3888C7 26.5547 7.9402 27.4999 9.1 27.4999H25.9C27.0598 27.4999 28 26.5547 28 25.3888V16.9443C28 18.1103 27.0598 19.0554 25.9 19.0554Z" fill="#4171FF"/>
</svg>
