<svg width="24" height="24" viewBox="0 0 24 24" fill="none" xmlns="http://www.w3.org/2000/svg">
<rect width="24" height="24" rx="12" fill="#F3F3F3"/>
<path d="M15.9999 7.99967C15.5933 7.99967 15.2199 7.76634 15.0333 7.40634L14.5533 6.43967C14.2466 5.83301 13.4466 5.33301 12.7666 5.33301H11.2399C10.5533 5.33301 9.75328 5.83301 9.44662 6.43967L8.96662 7.40634C8.77995 7.76634 8.40662 7.99967 7.99995 7.99967C6.55328 7.99967 5.40662 9.21967 5.49995 10.6597L5.84662 16.1663C5.92662 17.5397 6.66662 18.6663 8.50662 18.6663H15.4933C17.3333 18.6663 18.0666 17.5397 18.1533 16.1663L18.4999 10.6597C18.5933 9.21967 17.4466 7.99967 15.9999 7.99967ZM10.9999 8.83301H12.9999C13.2733 8.83301 13.4999 9.05967 13.4999 9.33301C13.4999 9.60634 13.2733 9.83301 12.9999 9.83301H10.9999C10.7266 9.83301 10.4999 9.60634 10.4999 9.33301C10.4999 9.05967 10.7266 8.83301 10.9999 8.83301ZM11.9999 16.0797C10.7599 16.0797 9.74662 15.073 9.74662 13.8263C9.74662 12.5797 10.7533 11.573 11.9999 11.573C13.2466 11.573 14.2533 12.5797 14.2533 13.8263C14.2533 15.073 13.2399 16.0797 11.9999 16.0797Z" fill="#B5B5B5"/>
</svg>
