<svg xmlns="http://www.w3.org/2000/svg" width="30" height="30" viewBox="0 0 30 30" fill="none">
  <path d="M22.1053 7.36858C21.3562 7.36858 20.6685 6.93876 20.3246 6.2756L19.4404 4.4949C18.8755 3.37735 17.4018 2.4563 16.1492 2.4563H13.3369C12.072 2.4563 10.5983 3.37735 10.0334 4.4949L9.14918 6.2756C8.80532 6.93876 8.1176 7.36858 7.36848 7.36858C4.70357 7.36858 2.59129 9.61595 2.76322 12.2686L3.40181 22.4124C3.54918 24.9423 4.91234 27.0177 8.30182 27.0177H21.172C24.5615 27.0177 25.9123 24.9423 26.072 22.4124L26.7106 12.2686C26.8825 9.61595 24.7702 7.36858 22.1053 7.36858ZM12.8948 8.90367H16.579C17.0825 8.90367 17.5001 9.32121 17.5001 9.82472C17.5001 10.3282 17.0825 10.7458 16.579 10.7458H12.8948C12.3913 10.7458 11.9737 10.3282 11.9737 9.82472C11.9737 9.32121 12.3913 8.90367 12.8948 8.90367ZM14.7369 22.2528C12.4527 22.2528 10.586 20.3984 10.586 18.1019C10.586 15.8054 12.4404 13.951 14.7369 13.951C17.0334 13.951 18.8878 15.8054 18.8878 18.1019C18.8878 20.3984 17.0211 22.2528 14.7369 22.2528Z" fill="#B5B5B5"/>
</svg>
