<svg width="36" height="36" viewBox="0 0 36 36" fill="none" xmlns="http://www.w3.org/2000/svg">
<rect width="36" height="36" rx="18" fill="#F3F3F3"/>
<g clip-path="url(#clip0_5423_3811)">
<path d="M8.76782 11H17.9988V25H8.76782C8.0679 25 7.5 24.4532 7.5 23.7794V12.2206C7.5 11.5468 8.0679 11 8.76782 11Z" fill="#D9E3FF"/>
<path d="M17.9988 11H27.2297C27.9296 11 28.4975 11.5468 28.4975 12.2206V23.777C28.4975 24.4508 27.9296 24.9976 27.2297 24.9976H17.9988V11Z" fill="#4171FF"/>
<path d="M26.5943 15.4246H20.046C19.8318 15.4246 19.6599 15.2567 19.6599 15.0529C19.6599 14.849 19.8343 14.6812 20.046 14.6812H26.5943C26.8085 14.6812 26.9804 14.849 26.9804 15.0529C26.9804 15.2567 26.806 15.4246 26.5943 15.4246Z" fill="white"/>
<path d="M16.4344 15.4246H9.88608C9.67187 15.4246 9.5 15.2567 9.5 15.0529C9.5 14.849 9.67436 14.6812 9.88608 14.6812H16.4344C16.6486 14.6812 16.8205 14.849 16.8205 15.0529C16.8205 15.2567 16.6461 15.4246 16.4344 15.4246Z" fill="white"/>
<path d="M26.5943 17.4341H20.046C19.8318 17.4341 19.6599 17.2662 19.6599 17.0624C19.6599 16.8585 19.8343 16.6907 20.046 16.6907H26.5943C26.8085 16.6907 26.9804 16.8585 26.9804 17.0624C26.9804 17.2662 26.806 17.4341 26.5943 17.4341Z" fill="white"/>
<path d="M16.4344 17.4341H9.88608C9.67187 17.4341 9.5 17.2662 9.5 17.0624C9.5 16.8585 9.67436 16.6907 9.88608 16.6907H16.4344C16.6486 16.6907 16.8205 16.8585 16.8205 17.0624C16.8205 17.2662 16.6461 17.4341 16.4344 17.4341Z" fill="white"/>
<path d="M26.5943 19.446H20.046C19.8318 19.446 19.6599 19.2782 19.6599 19.0743C19.6599 18.8705 19.8343 18.7026 20.046 18.7026H26.5943C26.8085 18.7026 26.9804 18.8705 26.9804 19.0743C26.9804 19.2782 26.806 19.446 26.5943 19.446Z" fill="white"/>
<path d="M16.4344 19.446H9.88608C9.67187 19.446 9.5 19.2782 9.5 19.0743C9.5 18.8705 9.67436 18.7026 9.88608 18.7026H16.4344C16.6486 18.7026 16.8205 18.8705 16.8205 19.0743C16.8205 19.2782 16.6461 19.446 16.4344 19.446Z" fill="white"/>
<path d="M26.5943 21.4558H20.046C19.8318 21.4558 19.6599 21.2879 19.6599 21.0841C19.6599 20.8803 19.8343 20.7124 20.046 20.7124H26.5943C26.8085 20.7124 26.9804 20.8803 26.9804 21.0841C26.9804 21.2879 26.806 21.4558 26.5943 21.4558Z" fill="white"/>
<path d="M16.4344 21.4558H9.88608C9.67187 21.4558 9.5 21.2879 9.5 21.0841C9.5 20.8803 9.67436 20.7124 9.88608 20.7124H16.4344C16.6486 20.7124 16.8205 20.8803 16.8205 21.0841C16.8205 21.2879 16.6461 21.4558 16.4344 21.4558Z" fill="white"/>
</g>
<defs>
<clipPath id="clip0_5423_3811">
<rect width="21" height="14" fill="white" transform="translate(7.5 11)"/>
</clipPath>
</defs>
</svg>
