<svg width="20" height="20" viewBox="0 0 20 20" fill="none" xmlns="http://www.w3.org/2000/svg">
<path d="M12.5 18.9584H7.49999C2.97499 18.9584 1.04166 17.0251 1.04166 12.5001V7.50008C1.04166 2.97508 2.97499 1.04175 7.49999 1.04175H12.5C17.025 1.04175 18.9583 2.97508 18.9583 7.50008V12.5001C18.9583 17.0251 17.025 18.9584 12.5 18.9584ZM7.49999 2.29175C3.65832 2.29175 2.29166 3.65841 2.29166 7.50008V12.5001C2.29166 16.3417 3.65832 17.7084 7.49999 17.7084H12.5C16.3417 17.7084 17.7083 16.3417 17.7083 12.5001V7.50008C17.7083 3.65841 16.3417 2.29175 12.5 2.29175H7.49999Z" fill="#D0D0D0"/>
<path d="M8.81667 12.9834C8.65 12.9834 8.49167 12.9167 8.375 12.8001L6.01667 10.4417C5.775 10.2001 5.775 9.80008 6.01667 9.55841C6.25834 9.31675 6.65834 9.31675 6.9 9.55841L8.81667 11.4751L13.1 7.19175C13.3417 6.95008 13.7417 6.95008 13.9833 7.19175C14.225 7.43341 14.225 7.83341 13.9833 8.07508L9.25834 12.8001C9.14167 12.9167 8.98334 12.9834 8.81667 12.9834Z" fill="#D0D0D0"/>
</svg>
