<svg width="25" height="24" viewBox="0 0 25 24" fill="none" xmlns="http://www.w3.org/2000/svg">
<mask id="mask0_1093_15135" style="mask-type:alpha" maskUnits="userSpaceOnUse" x="0" y="0" width="25" height="24">
<rect x="0.5" width="24" height="24" fill="#D9D9D9"/>
</mask>
<g mask="url(#mask0_1093_15135)">
<path d="M10.05 15.515L18.6885 6.87653C18.8372 6.7277 19.0112 6.6517 19.2105 6.64853C19.4098 6.64537 19.5871 6.72137 19.7423 6.87653C19.8974 7.0317 19.975 7.20987 19.975 7.41103C19.975 7.61237 19.8974 7.79061 19.7423 7.94578L10.6828 17.0208C10.5019 17.2014 10.291 17.2918 10.05 17.2918C9.80901 17.2918 9.59809 17.2014 9.41726 17.0208L5.24226 12.8458C5.09359 12.6969 5.02026 12.5203 5.02226 12.3158C5.02409 12.1114 5.10259 11.9317 5.25776 11.7765C5.41292 11.6214 5.59109 11.5438 5.79226 11.5438C5.99359 11.5438 6.17184 11.6214 6.32701 11.7765L10.05 15.515Z" fill="#4171FF"/>
</g>
</svg>
