<svg width="20" height="20" viewBox="0 0 20 20" fill="none" xmlns="http://www.w3.org/2000/svg">
<path d="M13.4917 1.66675H6.50832C3.47499 1.66675 1.66666 3.47508 1.66666 6.50841V13.4834C1.66666 16.5251 3.47499 18.3334 6.50832 18.3334H13.4833C16.5167 18.3334 18.325 16.5251 18.325 13.4917V6.50841C18.3333 3.47508 16.525 1.66675 13.4917 1.66675ZM13.9833 8.08341L9.25832 12.8084C9.14166 12.9251 8.98332 12.9917 8.81666 12.9917C8.64999 12.9917 8.49166 12.9251 8.37499 12.8084L6.01666 10.4501C5.77499 10.2084 5.77499 9.80841 6.01666 9.56675C6.25832 9.32508 6.65832 9.32508 6.89999 9.56675L8.81666 11.4834L13.1 7.20008C13.3417 6.95842 13.7417 6.95842 13.9833 7.20008C14.225 7.44175 14.225 7.83341 13.9833 8.08341Z" fill="#4171FF"/>
</svg>
