<svg width="24" height="24" viewBox="0 0 24 24" fill="none" xmlns="http://www.w3.org/2000/svg">
<mask id="mask0_5971_7670" style="mask-type:alpha" maskUnits="userSpaceOnUse" x="0" y="0" width="24" height="24">
<rect width="24" height="24" fill="#D9D9D9"/>
</mask>
<g mask="url(#mask0_5971_7670)">
<path d="M9.54976 15.5155L18.1883 6.87702C18.3369 6.72819 18.5109 6.65219 18.7103 6.64902C18.9096 6.64585 19.0868 6.72185 19.242 6.87702C19.3972 7.03219 19.4748 7.21035 19.4748 7.41152C19.4748 7.61285 19.3972 7.7911 19.242 7.94627L10.1825 17.0213C10.0017 17.2019 9.79076 17.2923 9.54976 17.2923C9.30876 17.2923 9.09785 17.2019 8.91701 17.0213L4.74201 12.8463C4.59335 12.6974 4.52001 12.5208 4.52201 12.3163C4.52385 12.1119 4.60235 11.9322 4.75751 11.777C4.91268 11.6219 5.09085 11.5443 5.29201 11.5443C5.49335 11.5443 5.6716 11.6219 5.82676 11.777L9.54976 15.5155Z" fill="#4171FF"/>
</g>
</svg>
