<svg width="19" height="18" viewBox="0 0 19 18" fill="none" xmlns="http://www.w3.org/2000/svg">
<path opacity="0.4" d="M12.6425 1.5H6.3575C3.6275 1.5 2 3.1275 2 5.8575V12.135C2 14.8725 3.6275 16.5 6.3575 16.5H12.635C15.365 16.5 16.9925 14.8725 16.9925 12.1425V5.8575C17 3.1275 15.3725 1.5 12.6425 1.5Z" fill="#6284E8"/>
<path d="M8.43508 11.6852C8.28508 11.6852 8.14258 11.6252 8.03758 11.5202L5.91508 9.3977C5.69758 9.1802 5.69758 8.8202 5.91508 8.6027C6.13258 8.3852 6.49258 8.3852 6.71008 8.6027L8.43508 10.3277L12.2901 6.4727C12.5076 6.2552 12.8676 6.2552 13.0851 6.4727C13.3026 6.6902 13.3026 7.05019 13.0851 7.26769L8.83258 11.5202C8.72758 11.6252 8.58508 11.6852 8.43508 11.6852Z" fill="#4171FF"/>
</svg>
