<svg width="16" height="16" viewBox="0 0 16 16" fill="none" xmlns="http://www.w3.org/2000/svg">
<g clip-path="url(#clip0_1093_10684)">
<path d="M12.2 3.80665C11.94 3.54665 11.52 3.54665 11.26 3.80665L8.00001 7.05998L4.74001 3.79998C4.48001 3.53998 4.06001 3.53998 3.80001 3.79998C3.54001 4.05998 3.54001 4.47998 3.80001 4.73998L7.06001 7.99998L3.80001 11.26C3.54001 11.52 3.54001 11.94 3.80001 12.2C4.06001 12.46 4.48001 12.46 4.74001 12.2L8.00001 8.93998L11.26 12.2C11.52 12.46 11.94 12.46 12.2 12.2C12.46 11.94 12.46 11.52 12.2 11.26L8.94001 7.99998L12.2 4.73998C12.4533 4.48665 12.4533 4.05998 12.2 3.80665Z" fill="#909090"/>
</g>
<defs>
<clipPath id="clip0_1093_10684">
<rect width="16" height="16" fill="white"/>
</clipPath>
</defs>
</svg>
