<svg width="30" height="30" viewBox="0 0 30 30" fill="none" xmlns="http://www.w3.org/2000/svg">
<path d="M15 30C23.2843 30 30 23.2843 30 15C30 6.71573 23.2843 0 15 0C6.71573 0 0 6.71573 0 15C0 23.2843 6.71573 30 15 30Z" fill="#D9E3FF"/>
<path d="M4.69815 19.0742C6.10915 19.0742 7.25299 18.1622 7.25299 17.0371C7.25299 15.912 6.10915 15 4.69815 15C3.28715 15 2.14331 15.912 2.14331 17.0371C2.14331 18.1622 3.28715 19.0742 4.69815 19.0742Z" fill="#A0B8FF"/>
<path d="M25.3014 19.0742C26.7124 19.0742 27.8563 18.1622 27.8563 17.0371C27.8563 15.912 26.7124 15 25.3014 15C23.8904 15 22.7466 15.912 22.7466 17.0371C22.7466 18.1622 23.8904 19.0742 25.3014 19.0742Z" fill="#A0B8FF"/>
<path d="M15.0001 23.4628C11.342 23.4628 8.36621 21.237 8.36621 18.4983C8.36621 18.0967 8.6904 17.7725 9.09202 17.7725C9.49363 17.7725 9.81782 18.0967 9.81782 18.4983C9.81782 20.4338 12.1404 22.0112 15.0001 22.0112C17.8598 22.0112 20.1823 20.4338 20.1823 18.4983C20.1823 18.0967 20.5065 17.7725 20.9081 17.7725C21.3098 17.7725 21.634 18.0967 21.634 18.4983C21.634 21.237 18.6581 23.4628 15.0001 23.4628Z" fill="#4171FF"/>
<path d="M11.5355 13.829C11.1339 13.829 10.8097 13.5049 10.8097 13.1032C10.8097 11.6855 9.85162 10.5339 8.67582 10.5339C7.50001 10.5339 6.54194 11.6855 6.54194 13.1032C6.54194 13.5049 6.21775 13.829 5.81614 13.829C5.41453 13.829 5.09033 13.5049 5.09033 13.1032C5.09033 10.8871 6.69678 9.08228 8.67582 9.08228C10.6548 9.08228 12.2613 10.8871 12.2613 13.1032C12.2613 13.5049 11.9371 13.829 11.5355 13.829Z" fill="#4171FF"/>
<path d="M24.1837 13.829C23.7821 13.829 23.4579 13.5049 23.4579 13.1032C23.4579 11.6855 22.4998 10.5339 21.324 10.5339C20.1482 10.5339 19.1901 11.6855 19.1901 13.1032C19.1901 13.5049 18.8659 13.829 18.4643 13.829C18.0627 13.829 17.7385 13.5049 17.7385 13.1032C17.7385 10.8871 19.345 9.08228 21.324 9.08228C23.303 9.08228 24.9095 10.8871 24.9095 13.1032C24.9095 13.5049 24.5853 13.829 24.1837 13.829Z" fill="#4171FF"/>
</svg>
