<svg width="60" height="60" viewBox="0 0 60 60" fill="none" xmlns="http://www.w3.org/2000/svg">
<g id="Group 1437256812">
<circle id="Ellipse 20" cx="30" cy="30" r="30" fill="#D9E3FF"/>
<path id="Intersect" fill-rule="evenodd" clip-rule="evenodd" d="M34.1809 11.3211C40.8349 11.6737 46.546 16.0583 49.5452 20.876L49.5576 20.8641C52.7534 25.9991 52.7861 31.338 49.6377 34.7967C49.0993 35.3936 48.4941 35.9066 47.8492 36.3191C45.2772 37.9668 41.99 38.1612 38.652 36.7822C33.1989 34.5271 27.6422 28.0931 26.4328 19.8324C22.6189 20.7894 20.2251 23.8253 18.7959 26.5418C24.6531 27.5161 29.6041 31.5103 32.3261 35.8827C35.5219 41.0178 35.5546 46.3566 32.4062 49.8153C31.8678 50.4122 31.2626 50.9252 30.6177 51.3377C28.0457 52.9855 24.7586 53.1799 21.4205 51.8008C15.9362 49.5233 10.3367 43.0301 9.17715 34.6973C7.47373 35.2328 5.61929 36.0579 2.81838 37.8502L1.30003 38.8248C0.57347 36.4785 0.127105 34.0089 3.10061e-05 31.4553C4.26401 28.8444 6.96519 28.0633 9.47409 27.4555L10.7529 27.2632C12.7292 21.4622 17.6947 13.6725 26.6962 12.5609L26.7006 12.4466C27.5805 8.5323 29.4284 4.06814 31.8821 9.82793e-06C34.3977 0.158876 36.8292 0.627779 39.1386 1.36894L37.8547 3.47761C36.3141 6.01935 35.0327 8.77002 34.1809 11.3211ZM27.2882 45.164L27.2888 45.1634C28.3804 43.965 27.6539 41.4744 26.448 39.538C24.3255 36.1229 20.2735 33.2175 15.9645 33.241C16.62 39.0215 20.3948 43.8938 24.0592 45.4123C26.2377 46.3156 27.0296 45.4475 27.2882 45.164ZM44.5147 30.1551L44.5153 30.1544C45.6069 28.956 44.8803 26.4655 43.6745 24.529C41.5519 21.1139 37.5 18.2085 33.1909 18.2321C33.8465 24.0125 37.6213 28.8849 41.2856 30.4034C43.4642 31.3066 44.2561 30.4386 44.5147 30.1551Z" fill="#6284E8"/>
</g>
</svg>
