<svg width="24" height="24" viewBox="0 0 24 24" fill="none" xmlns="http://www.w3.org/2000/svg">
<path d="M17.5 6V20H6.5V6H17.5ZM19.5 4H4.5V20C4.5 21.1 5.4 22 6.5 22H17.5C18.6 22 19.5 21.1 19.5 20V4Z" fill="#909090"/>
<path d="M11 9H9V17H11V9Z" fill="#909090"/>
<path d="M15 9H13V17H15V9Z" fill="#909090"/>
<path d="M21 4H3V6H21V4Z" fill="#909090"/>
<path d="M14.36 3L14.56 4H9.44L9.64 3H14.36ZM14.36 1H9.64C8.69 1 7.87001 1.67 7.68001 2.61L7 6H17L16.32 2.61C16.13 1.67 15.31 1 14.36 1Z" fill="#909090"/>
</svg>
