<svg width="36" height="36" viewBox="0 0 36 36" fill="none" xmlns="http://www.w3.org/2000/svg">
<rect width="36" height="36" rx="18" fill="#F3F3F3"/>
<g clip-path="url(#clip0_5423_3753)">
<path d="M26.3742 9.79272H9.62598V26.5409H26.3742V9.79272Z" stroke="#D9E3FF" stroke-width="2.8705" stroke-miterlimit="10"/>
<path d="M18.8777 13.2346H13.8359C13.2988 13.2346 12.8633 13.6701 12.8633 14.2073V19.249C12.8633 19.7862 13.2988 20.2217 13.8359 20.2217H18.8777C19.4149 20.2217 19.8503 19.7862 19.8503 19.249V14.2073C19.8503 13.6701 19.4149 13.2346 18.8777 13.2346Z" fill="#4171FF"/>
<path d="M22.7339 16.1094H17.6921C17.155 16.1094 16.7195 16.5449 16.7195 17.082V22.1238C16.7195 22.6609 17.155 23.0964 17.6921 23.0964H22.7339C23.2711 23.0964 23.7065 22.6609 23.7065 22.1238V17.082C23.7065 16.5449 23.2711 16.1094 22.7339 16.1094Z" fill="#A0B8FF"/>
<path d="M9.6259 11.2518C10.5239 11.2518 11.2518 10.5239 11.2518 9.6259C11.2518 8.72794 10.5239 8 9.6259 8C8.72794 8 8 8.72794 8 9.6259C8 10.5239 8.72794 11.2518 9.6259 11.2518Z" fill="#4171FF"/>
<path d="M9.6259 28.0001C10.5239 28.0001 11.2518 27.2721 11.2518 26.3742C11.2518 25.4762 10.5239 24.7483 9.6259 24.7483C8.72794 24.7483 8 25.4762 8 26.3742C8 27.2721 8.72794 28.0001 9.6259 28.0001Z" fill="#4171FF"/>
<path d="M26.3742 28.0001C27.2721 28.0001 28.0001 27.2721 28.0001 26.3742C28.0001 25.4762 27.2721 24.7483 26.3742 24.7483C25.4762 24.7483 24.7483 25.4762 24.7483 26.3742C24.7483 27.2721 25.4762 28.0001 26.3742 28.0001Z" fill="#4171FF"/>
<path d="M26.3742 11.4159C27.2721 11.4159 28.0001 10.6879 28.0001 9.78996C28.0001 8.892 27.2721 8.16406 26.3742 8.16406C25.4762 8.16406 24.7483 8.892 24.7483 9.78996C24.7483 10.6879 25.4762 11.4159 26.3742 11.4159Z" fill="#4171FF"/>
</g>
<defs>
<clipPath id="clip0_5423_3753">
<rect width="20" height="20" fill="white" transform="translate(8 8)"/>
</clipPath>
</defs>
</svg>
