<svg width="36" height="36" viewBox="0 0 36 36" fill="none" xmlns="http://www.w3.org/2000/svg">
<rect width="36" height="36" rx="18" fill="#F3F3F3"/>
<g clip-path="url(#clip0_5423_3765)">
<path d="M27.6474 11.9089H8.35269C7.06143 11.9089 6.01465 12.8254 6.01465 13.956V23.9531C6.01465 25.0836 7.06143 26.0001 8.35269 26.0001H27.6474C28.9386 26.0001 29.9854 25.0836 29.9854 23.9531V13.956C29.9854 12.8254 28.9386 11.9089 27.6474 11.9089Z" fill="#D9E3FF"/>
<path d="M8.33804 10H27.662C28.9537 10 30 10.916 30 12.047V14.7261H6V12.047C6 10.916 7.04627 10 8.33804 10Z" fill="#4171FF"/>
<path d="M8.51383 13.0555C8.88202 13.0555 9.1805 12.757 9.1805 12.3888C9.1805 12.0206 8.88202 11.7222 8.51383 11.7222C8.14564 11.7222 7.84717 12.0206 7.84717 12.3888C7.84717 12.757 8.14564 13.0555 8.51383 13.0555Z" fill="white"/>
<path d="M11.1701 13.0555C11.5383 13.0555 11.8368 12.757 11.8368 12.3888C11.8368 12.0206 11.5383 11.7222 11.1701 11.7222C10.8019 11.7222 10.5034 12.0206 10.5034 12.3888C10.5034 12.757 10.8019 13.0555 11.1701 13.0555Z" fill="white"/>
<path d="M13.8298 13.0555C14.1979 13.0555 14.4964 12.757 14.4964 12.3888C14.4964 12.0206 14.1979 11.7222 13.8298 11.7222C13.4616 11.7222 13.1631 12.0206 13.1631 12.3888C13.1631 12.757 13.4616 13.0555 13.8298 13.0555Z" fill="white"/>
<path d="M16.8 22.0703L19.1936 17.3545" stroke="#4171FF" stroke-miterlimit="10" stroke-linecap="round"/>
<path d="M21.6644 17.3545L24.2421 19.6139L21.6001 21.927" stroke="#4171FF" stroke-linecap="round" stroke-linejoin="round"/>
<path d="M14.271 17.3745L11.6904 19.6339L14.3324 21.947" stroke="#4171FF" stroke-linecap="round" stroke-linejoin="round"/>
</g>
<defs>
<clipPath id="clip0_5423_3765">
<rect width="24" height="16" fill="white" transform="translate(6 10)"/>
</clipPath>
</defs>
</svg>
