<svg width="35" height="36" viewBox="0 0 35 36" fill="none" xmlns="http://www.w3.org/2000/svg">
<rect y="0.5" width="35" height="35" rx="17.5" fill="#F3F3F3"/>
<rect x="7" y="7.5" width="21" height="21" rx="3" fill="#D9E3FF"/>
<path d="M19.124 20.4779C19.0066 20.4778 18.8919 20.4421 18.7942 20.3752C18.6966 20.3082 18.6206 20.2131 18.5756 20.1018C18.5307 19.9906 18.519 19.8681 18.5419 19.75C18.5648 19.6318 18.6213 19.5233 18.7043 19.4381L22.86 15.1745C22.9717 15.062 23.1221 14.9993 23.2786 15C23.4351 15.0007 23.585 15.0648 23.6957 15.1784C23.8064 15.2919 23.8688 15.4457 23.8696 15.6063C23.8703 15.7668 23.8091 15.9212 23.6995 16.0358L19.5437 20.2994C19.4887 20.3561 19.4233 20.401 19.3512 20.4316C19.2792 20.4622 19.202 20.478 19.124 20.4779ZM12.5936 21.087C12.4762 21.0869 12.3614 21.0512 12.2638 20.9843C12.1662 20.9173 12.0901 20.8222 12.0452 20.7109C12.0003 20.5997 11.9885 20.4772 12.0114 20.3591C12.0343 20.2409 12.0908 20.1324 12.1738 20.0472L15.7359 16.3927C15.8476 16.2802 15.998 16.2175 16.1545 16.2182C16.311 16.2189 16.4609 16.283 16.5716 16.3966C16.6822 16.5101 16.7447 16.6639 16.7454 16.8245C16.7461 16.985 16.685 17.1394 16.5753 17.2539L13.0133 20.9085C12.9582 20.9651 12.8928 21.0101 12.8208 21.0407C12.7487 21.0713 12.6715 21.087 12.5936 21.087Z" fill="#4171FF"/>
<path d="M19.13 20.4783C19.0615 20.4783 18.9935 20.4655 18.9302 20.4405C18.8668 20.4155 18.8092 20.3788 18.7608 20.3325L16.1496 17.8457C16.0532 17.7522 15.9994 17.6262 16 17.4951C16.0006 17.3639 16.0556 17.2384 16.1529 17.1457C16.2503 17.0529 16.3821 17.0006 16.5198 17C16.6575 16.9994 16.7898 17.0506 16.8881 17.1425L19.4993 19.6293C19.5723 19.6988 19.622 19.7874 19.6421 19.8839C19.6623 19.9804 19.6519 20.0804 19.6124 20.1712C19.5729 20.2621 19.506 20.3398 19.4201 20.3944C19.3343 20.4491 19.2333 20.4782 19.13 20.4783Z" fill="#4171FF"/>
</svg>
