<svg width="29" height="28" viewBox="0 0 29 28" fill="none" xmlns="http://www.w3.org/2000/svg">
<mask id="mask0_1093_14465" style="mask-type:alpha" maskUnits="userSpaceOnUse" x="0" y="0" width="29" height="28">
<rect x="0.612305" width="28" height="28" fill="#D9D9D9"/>
</mask>
<g mask="url(#mask0_1093_14465)">
<path d="M14.6126 20.1253C16.7487 20.1253 18.619 19.0085 19.7444 17.0628C19.8077 16.9632 19.8503 16.8518 19.8694 16.7354C19.8886 16.6189 19.884 16.4998 19.8559 16.3852C19.8278 16.2705 19.7768 16.1628 19.706 16.0684C19.6352 15.974 19.5461 15.8949 19.4439 15.8358C19.3417 15.7767 19.2287 15.739 19.1115 15.7247C18.9944 15.7105 18.8755 15.7201 18.7622 15.753C18.6489 15.7859 18.5434 15.8413 18.452 15.9161C18.3607 15.9908 18.2854 16.0832 18.2307 16.1878C17.4137 17.5987 16.1296 18.3753 14.6126 18.3753C13.0955 18.3753 11.8115 17.5998 10.9955 16.1878C10.9381 16.0882 10.8616 16.001 10.7704 15.931C10.6792 15.861 10.5752 15.8097 10.4642 15.7799C10.3532 15.7502 10.2374 15.7426 10.1234 15.7576C10.0095 15.7726 9.89959 15.8098 9.80006 15.8673C9.70052 15.9247 9.61327 16.0012 9.5433 16.0924C9.47332 16.1836 9.42199 16.2876 9.39223 16.3987C9.36247 16.5097 9.35487 16.6254 9.36986 16.7394C9.38485 16.8533 9.42213 16.9632 9.47959 17.0628C10.6062 19.0096 12.4765 20.1253 14.6126 20.1253Z" fill="#B5B5B5"/>
<path d="M14.6144 25.083C13.0814 25.083 11.6405 24.7921 10.2916 24.2103C8.94277 23.6286 7.7695 22.839 6.7718 21.8417C5.77411 20.8444 4.98418 19.6716 4.40201 18.3233C3.82004 16.9751 3.52905 15.5345 3.52905 14.0017C3.52905 12.4687 3.82004 11.0278 4.40201 9.67892C4.98379 8.33006 5.77343 7.15679 6.77093 6.15909C7.76843 5.1614 8.94141 4.37147 10.2899 3.7893C11.6384 3.20733 13.0792 2.91634 14.6124 2.91634C15.2764 2.91634 15.927 2.97059 16.5642 3.07909C17.2014 3.18759 17.8155 3.35394 18.4064 3.57813C18.7404 3.69694 18.9511 3.87136 19.0384 4.10138C19.1255 4.33141 19.1317 4.55492 19.0568 4.77192C18.9821 4.98873 18.8472 5.15731 18.652 5.27768C18.4567 5.39804 18.2388 5.40893 17.9981 5.31034C17.4699 5.09781 16.9266 4.9374 16.3679 4.82909C15.8091 4.72059 15.2239 4.66634 14.6124 4.66634C12.0263 4.66634 9.82419 5.57537 8.00614 7.39342C6.18808 9.21148 5.27905 11.4136 5.27905 13.9997C5.27905 16.5858 6.18808 18.7879 8.00614 20.6059C9.82419 22.424 12.0263 23.333 14.6124 23.333C17.1985 23.333 19.4006 22.424 21.2186 20.6059C23.0367 18.7879 23.9457 16.5858 23.9457 13.9997C23.9457 13.6123 23.9226 13.2271 23.8763 12.8441C23.8298 12.461 23.7602 12.0887 23.6675 11.727C23.5928 11.4548 23.6284 11.2319 23.7742 11.0582C23.9199 10.8848 24.1012 10.7727 24.3182 10.7219C24.535 10.671 24.7509 10.7005 24.966 10.8106C25.1808 10.9205 25.3253 11.1294 25.3994 11.4374C25.5042 11.8488 25.5797 12.2673 25.626 12.6927C25.6725 13.1182 25.6957 13.5538 25.6957 13.9997C25.6957 15.5329 25.4048 16.9737 24.8231 18.3222C24.2413 19.6706 23.4517 20.8436 22.4544 21.8411C21.4571 22.8386 20.2843 23.6283 18.9361 24.2101C17.5878 24.792 16.1472 25.083 14.6144 25.083ZM24.2374 5.54134H22.7791C22.5311 5.54134 22.3234 5.45744 22.1558 5.28963C21.988 5.12183 21.9041 4.91397 21.9041 4.66605C21.9041 4.41794 21.988 4.21017 22.1558 4.04276C22.3234 3.87515 22.5311 3.79134 22.7791 3.79134H24.2374V2.33301C24.2374 2.08509 24.3213 1.87733 24.4891 1.70972C24.6569 1.54191 24.8648 1.45801 25.1127 1.45801C25.3608 1.45801 25.5686 1.54191 25.736 1.70972C25.9036 1.87733 25.9874 2.08509 25.9874 2.33301V3.79134H27.4457C27.6936 3.79134 27.9014 3.87524 28.069 4.04305C28.2368 4.21086 28.3207 4.41872 28.3207 4.66663C28.3207 4.91474 28.2368 5.12251 28.069 5.28992C27.9014 5.45754 27.6936 5.54134 27.4457 5.54134H25.9874V6.99967C25.9874 7.24759 25.9035 7.45535 25.7357 7.62297C25.5679 7.79077 25.36 7.87467 25.1121 7.87467C24.864 7.87467 24.6562 7.79077 24.4888 7.62297C24.3212 7.45535 24.2374 7.24759 24.2374 6.99967V5.54134ZM18.5861 12.6087C19.0107 12.6087 19.3707 12.4601 19.6661 12.1628C19.9615 11.8656 20.1091 11.5049 20.1091 11.0804C20.1091 10.6559 19.9606 10.296 19.6635 10.0006C19.3664 9.70508 19.0055 9.5573 18.5808 9.5573C18.1563 9.5573 17.7964 9.70595 17.5011 10.0033C17.2057 10.3004 17.058 10.6612 17.058 11.0856C17.058 11.5101 17.2066 11.87 17.5037 12.1654C17.8008 12.4609 18.1616 12.6087 18.5861 12.6087ZM10.644 12.6087C11.0684 12.6087 11.4284 12.4601 11.7237 12.1628C12.0191 11.8656 12.1668 11.5049 12.1668 11.0804C12.1668 10.6559 12.0182 10.296 11.7211 10.0006C11.424 9.70508 11.0632 9.5573 10.6387 9.5573C10.2141 9.5573 9.85404 9.70595 9.55868 10.0033C9.26332 10.3004 9.11564 10.6612 9.11564 11.0856C9.11564 11.5101 9.26419 11.87 9.5613 12.1654C9.85841 12.4609 10.2193 12.6087 10.644 12.6087Z" fill="#B5B5B5"/>
</g>
</svg>
