<svg width="30" height="30" viewBox="0 0 30 30" fill="none" xmlns="http://www.w3.org/2000/svg">
<path d="M15 30C23.2843 30 30 23.2843 30 15C30 6.71573 23.2843 0 15 0C6.71573 0 0 6.71573 0 15C0 23.2843 6.71573 30 15 30Z" fill="#D9E3FF"/>
<path d="M10.4128 17.6904V18.9872C10.4128 19.4178 10.8145 19.7662 11.3128 19.7662H18.7693C19.2628 19.7662 19.6693 19.4178 19.6693 18.9872V18.0969" fill="#A0B8FF"/>
<path d="M15 24.2662C10.95 24.2662 7.65967 21.3146 7.65967 17.6904C7.65967 17.2888 7.98386 16.9646 8.38547 16.9646H21.6193C22.021 16.9646 22.3452 17.2888 22.3452 17.6904C22.3452 21.3146 19.05 24.2662 15.0048 24.2662H15ZM9.16935 18.4162C9.5758 20.8985 12.0339 22.8146 15 22.8146C17.9661 22.8146 20.4242 20.8985 20.8306 18.4162H9.16935Z" fill="#4171FF"/>
<path d="M5.43399 18.0339C6.84499 18.0339 7.98883 17.1219 7.98883 15.9968C7.98883 14.8718 6.84499 13.9597 5.43399 13.9597C4.02299 13.9597 2.87915 14.8718 2.87915 15.9968C2.87915 17.1219 4.02299 18.0339 5.43399 18.0339Z" fill="#A0B8FF"/>
<path d="M24.5663 17.6904C25.9773 17.6904 27.1212 16.7784 27.1212 15.6533C27.1212 14.5282 25.9773 13.6162 24.5663 13.6162C23.1553 13.6162 22.0115 14.5282 22.0115 15.6533C22.0115 16.7784 23.1553 17.6904 24.5663 17.6904Z" fill="#A0B8FF"/>
<path d="M11.5066 12.5034C11.3324 12.5034 11.1533 12.4405 11.0179 12.3147L7.50011 9.09208C7.20495 8.82111 7.18559 8.36143 7.45656 8.06627C7.72753 7.77111 8.18721 7.75176 8.48237 8.02272L12.0001 11.2453C12.2953 11.5163 12.3146 11.9759 12.0437 12.2711C11.8985 12.4259 11.7049 12.5082 11.5066 12.5082V12.5034Z" fill="#4171FF"/>
<path d="M7.98877 15.7257C7.79039 15.7257 7.59684 15.6483 7.45168 15.4886C7.18071 15.1935 7.20006 14.7338 7.49523 14.4628L11.013 11.2403C11.3081 10.9693 11.7678 10.9886 12.0388 11.2838C12.3097 11.579 12.2904 12.0386 11.9952 12.3096L8.47748 15.5322C8.33716 15.658 8.16297 15.7209 7.98877 15.7209V15.7257Z" fill="#4171FF"/>
<path d="M18.4934 12.5033C18.295 12.5033 18.1015 12.4259 17.9563 12.2662C17.6853 11.9711 17.7047 11.5114 17.9999 11.2404L21.5176 8.01784C21.8128 7.74687 22.2724 7.76623 22.5434 8.06139C22.8144 8.35655 22.795 8.81623 22.4999 9.08719L18.9821 12.3098C18.8418 12.4356 18.6676 12.4985 18.4934 12.4985V12.5033Z" fill="#4171FF"/>
<path d="M22.0114 15.7258C21.8373 15.7258 21.6582 15.6629 21.5227 15.5371L18.005 12.3145C17.7098 12.0435 17.6905 11.5838 17.9614 11.2887C18.2324 10.9935 18.6921 10.9742 18.9873 11.2451L22.505 14.4677C22.8002 14.7387 22.8195 15.1984 22.5485 15.4935C22.4034 15.6484 22.2098 15.7306 22.0114 15.7306V15.7258Z" fill="#4171FF"/>
</svg>
