<svg width="30" height="30" viewBox="0 0 30 30" fill="none" xmlns="http://www.w3.org/2000/svg">
<path d="M15 30C23.2843 30 30 23.2843 30 15C30 6.71573 23.2843 0 15 0C6.71573 0 0 6.71573 0 15C0 23.2843 6.71573 30 15 30Z" fill="#D9E3FF"/>
<path d="M4.69839 19.0693C6.10939 19.0693 7.25323 18.1573 7.25323 17.0322C7.25323 15.9072 6.10939 14.9951 4.69839 14.9951C3.28739 14.9951 2.14355 15.9072 2.14355 17.0322C2.14355 18.1573 3.28739 19.0693 4.69839 19.0693Z" fill="#A0B8FF"/>
<path d="M25.3063 19.0693C26.7173 19.0693 27.8611 18.1573 27.8611 17.0322C27.8611 15.9072 26.7173 14.9951 25.3063 14.9951C23.8953 14.9951 22.7515 15.9072 22.7515 17.0322C22.7515 18.1573 23.8953 19.0693 25.3063 19.0693Z" fill="#A0B8FF"/>
<path d="M15.0001 23.4581C11.342 23.4581 8.36621 21.2323 8.36621 18.4936C8.36621 18.092 8.6904 17.7678 9.09202 17.7678C9.49363 17.7678 9.81782 18.092 9.81782 18.4936C9.81782 20.4291 12.1404 22.0065 15.0001 22.0065C17.8598 22.0065 20.1823 20.434 20.1823 18.4936C20.1823 18.092 20.5065 17.7678 20.9081 17.7678C21.3098 17.7678 21.634 18.092 21.634 18.4936C21.634 21.2323 18.6581 23.4581 15.0001 23.4581Z" fill="#4171FF"/>
<path d="M20.6229 14.1967C21.4914 14.1967 22.1955 13.4926 22.1955 12.6241C22.1955 11.7556 21.4914 11.0515 20.6229 11.0515C19.7544 11.0515 19.0503 11.7556 19.0503 12.6241C19.0503 13.4926 19.7544 14.1967 20.6229 14.1967Z" fill="#4171FF"/>
<path d="M9.38215 14.1967C10.2507 14.1967 10.9547 13.4926 10.9547 12.6241C10.9547 11.7556 10.2507 11.0515 9.38215 11.0515C8.51364 11.0515 7.80957 11.7556 7.80957 12.6241C7.80957 13.4926 8.51364 14.1967 9.38215 14.1967Z" fill="#4171FF"/>
</svg>
