<svg width="71" height="71" viewBox="0 0 71 71" fill="none" xmlns="http://www.w3.org/2000/svg">
<path d="M35.5 70.5C54.83 70.5 70.5 54.83 70.5 35.5C70.5 16.17 54.83 0.5 35.5 0.5C16.17 0.5 0.5 16.17 0.5 35.5C0.5 54.83 16.17 70.5 35.5 70.5Z" fill="#D9E3FF"/>
<path d="M11.4628 45.0065C14.7551 45.0065 17.424 42.8784 17.424 40.2532C17.424 37.6281 14.7551 35.5 11.4628 35.5C8.17043 35.5 5.50146 37.6281 5.50146 40.2532C5.50146 42.8784 8.17043 45.0065 11.4628 45.0065Z" fill="#A0B8FF"/>
<path d="M59.537 45.0065C62.8293 45.0065 65.4983 42.8784 65.4983 40.2532C65.4983 37.6281 62.8293 35.5 59.537 35.5C56.2446 35.5 53.5757 37.6281 53.5757 40.2532C53.5757 42.8784 56.2446 45.0065 59.537 45.0065Z" fill="#A0B8FF"/>
<path d="M35.5 55.2467C26.9645 55.2467 20.021 50.0531 20.021 43.6628C20.021 42.7257 20.7774 41.9692 21.7145 41.9692C22.6516 41.9692 23.4081 42.7257 23.4081 43.6628C23.4081 48.1789 28.8274 51.8596 35.5 51.8596C42.1726 51.8596 47.592 48.1789 47.592 43.6628C47.592 42.7257 48.3484 41.9692 49.2855 41.9692C50.2226 41.9692 50.9791 42.7257 50.9791 43.6628C50.9791 50.0531 44.0355 55.2467 35.5 55.2467Z" fill="#4171FF"/>
<path d="M27.4162 32.7677C26.4791 32.7677 25.7226 32.0112 25.7226 31.0742C25.7226 27.7661 23.4871 25.079 20.7436 25.079C18 25.079 15.7645 27.7661 15.7645 31.0742C15.7645 32.0112 15.0081 32.7677 14.071 32.7677C13.1339 32.7677 12.3774 32.0112 12.3774 31.0742C12.3774 25.9032 16.1258 21.6919 20.7436 21.6919C25.3613 21.6919 29.1097 25.9032 29.1097 31.0742C29.1097 32.0112 28.3532 32.7677 27.4162 32.7677Z" fill="#4171FF"/>
<path d="M56.9288 32.7677C55.9917 32.7677 55.2353 32.0112 55.2353 31.0742C55.2353 27.7661 52.9998 25.079 50.2563 25.079C47.5127 25.079 45.2772 27.7661 45.2772 31.0742C45.2772 32.0112 44.5208 32.7677 43.5837 32.7677C42.6466 32.7677 41.8901 32.0112 41.8901 31.0742C41.8901 25.9032 45.6385 21.6919 50.2563 21.6919C54.874 21.6919 58.6224 25.9032 58.6224 31.0742C58.6224 32.0112 57.8659 32.7677 56.9288 32.7677Z" fill="#4171FF"/>
</svg>
