<svg width="36" height="36" viewBox="0 0 36 36" fill="none" xmlns="http://www.w3.org/2000/svg">
<rect width="36" height="36" rx="18" fill="#F3F3F3"/>
<g clip-path="url(#clip0_5_1498)">
<path d="M7.99653 11H18.3542C19.1008 11 19.7082 11.6251 19.7082 12.3934V19.7945C19.7082 20.5629 19.1008 21.188 18.3542 21.188H6.64258V12.3934C6.64258 11.6251 7.24992 11 7.99653 11Z" fill="#4171FF"/>
<path d="M29.5 25H17.9837C17.241 25 16.6363 24.3829 16.6363 23.6205V16.1895C16.6363 15.4291 17.239 14.81 17.9837 14.81L28.1545 14.81C28.8973 14.81 29.502 15.4271 29.502 16.1895V25H29.5Z" fill="#D9E3FF"/>
<path d="M12.0075 16.9877L11.4189 18.5065C11.3543 18.6677 11.2331 18.7394 11.0825 18.7394C10.8753 18.7394 10.6602 18.616 10.6602 18.397C10.6602 18.3393 10.6738 18.2796 10.7032 18.2079L12.6469 13.3966C12.7544 13.1338 12.8972 13.0024 13.1338 13.0024C13.3919 13.0024 13.5425 13.1338 13.65 13.3966L15.5507 18.2019C15.5801 18.2597 15.5859 18.3114 15.5859 18.3632C15.5859 18.5682 15.4139 18.7354 15.1557 18.7354C14.9973 18.7354 14.8683 18.6697 14.8038 18.5025L14.2308 16.9916H12.0075V16.9877ZM14.002 16.3308L13.5503 15.1264C13.3861 14.6965 13.2413 14.2506 13.1338 13.8624C13.0184 14.2426 12.8835 14.6805 12.7114 15.1264L12.2519 16.3308H14.002Z" fill="white"/>
<path d="M23.3578 18.7076C23.2404 18.7076 23.127 18.6478 23.0605 18.5404L22.3429 17.3758C22.2392 17.2086 22.2901 16.9877 22.4543 16.8822C22.6186 16.7767 22.8356 16.8284 22.9393 16.9956L23.6569 18.1601C23.7606 18.3274 23.7097 18.5483 23.5455 18.6538C23.4868 18.6916 23.4223 18.7096 23.3597 18.7096L23.3578 18.7076Z" fill="#4171FF"/>
<path d="M25.7684 18.7454H20.5395C20.3459 18.7454 20.1875 18.5862 20.1875 18.3871C20.1875 18.1881 20.3439 18.0288 20.5395 18.0288H25.7684C25.9619 18.0288 26.1203 18.1881 26.1203 18.3871C26.1203 18.5862 25.9639 18.7454 25.7684 18.7454Z" fill="#4171FF"/>
<path d="M25.5867 22.9856C25.5593 22.9856 25.5319 22.9816 25.5046 22.9756C22.6164 22.2749 21.5956 19.494 21.5546 19.3766C21.4881 19.1914 21.5819 18.9864 21.7657 18.9187C21.9476 18.851 22.149 18.9466 22.2155 19.1317C22.2253 19.1576 23.1561 21.6698 25.6688 22.2789C25.8565 22.3247 25.9739 22.5178 25.9289 22.7109C25.8898 22.8761 25.747 22.9856 25.5867 22.9856Z" fill="#4171FF"/>
<path d="M20.7168 22.7387C20.5623 22.7387 20.4215 22.6351 20.3785 22.4779C20.3257 22.2868 20.4352 22.0897 20.6229 22.038C23.7634 21.1442 24.262 18.3931 24.2679 18.3673C24.3011 18.1722 24.481 18.0428 24.6746 18.0746C24.8663 18.1085 24.9934 18.2936 24.9621 18.4887C24.9406 18.6201 24.3774 21.7135 20.8146 22.7287C20.7833 22.7387 20.752 22.7426 20.7207 22.7426L20.7168 22.7387Z" fill="#4171FF"/>
</g>
<defs>
<clipPath id="clip0_5_1498">
<rect width="23" height="14" fill="white" transform="translate(6.5 11)"/>
</clipPath>
</defs>
</svg>
