<svg width="30" height="30" viewBox="0 0 30 30" fill="none" xmlns="http://www.w3.org/2000/svg">
<path d="M15 30C23.2843 30 30 23.2843 30 15C30 6.71573 23.2843 0 15 0C6.71573 0 0 6.71573 0 15C0 23.2843 6.71573 30 15 30Z" fill="#D9E3FF"/>
<path d="M15.0001 23.8598C11.342 23.8598 8.36621 21.6339 8.36621 18.8952C8.36621 18.4936 8.6904 18.1694 9.09202 18.1694C9.49363 18.1694 9.81782 18.4936 9.81782 18.8952C9.81782 20.8307 12.1404 22.4081 15.0001 22.4081C17.8598 22.4081 20.1823 20.8307 20.1823 18.8952C20.1823 18.4936 20.5065 18.1694 20.9082 18.1694C21.3098 18.1694 21.634 18.4936 21.634 18.8952C21.634 21.6339 18.6582 23.8598 15.0001 23.8598Z" fill="#4171FF"/>
<path d="M8.56926 17.4339C5.64184 17.4339 3.25635 15.0533 3.25635 12.121C3.25635 9.18875 5.637 6.80811 8.56926 6.80811C11.5015 6.80811 13.8822 9.18875 13.8822 12.121C13.8822 15.0533 11.5015 17.4339 8.56926 17.4339ZM8.56926 8.25972C6.44022 8.25972 4.70796 9.99198 4.70796 12.121C4.70796 14.25 6.44022 15.9823 8.56926 15.9823C10.6983 15.9823 12.4306 14.25 12.4306 12.121C12.4306 9.99198 10.6983 8.25972 8.56926 8.25972Z" fill="#4171FF"/>
<path d="M21.4357 17.4339C18.5083 17.4339 16.1228 15.0533 16.1228 12.121C16.1228 9.18875 18.5034 6.80811 21.4357 6.80811C24.368 6.80811 26.7486 9.18875 26.7486 12.121C26.7486 15.0533 24.368 17.4339 21.4357 17.4339ZM21.4357 8.25972C19.3067 8.25972 17.5744 9.99198 17.5744 12.121C17.5744 14.25 19.3067 15.9823 21.4357 15.9823C23.5647 15.9823 25.297 14.25 25.297 12.121C25.297 9.99198 23.5647 8.25972 21.4357 8.25972Z" fill="#4171FF"/>
<path d="M16.8484 12.8469H13.1565C12.7549 12.8469 12.4307 12.5227 12.4307 12.1211C12.4307 11.7195 12.7549 11.3953 13.1565 11.3953H16.8484C17.25 11.3953 17.5742 11.7195 17.5742 12.1211C17.5742 12.5227 17.25 12.8469 16.8484 12.8469Z" fill="#4171FF"/>
<path d="M9.28077 13.6064C9.91678 13.6064 10.4324 13.0909 10.4324 12.4548C10.4324 11.8188 9.91678 11.3032 9.28077 11.3032C8.64475 11.3032 8.12915 11.8188 8.12915 12.4548C8.12915 13.0909 8.64475 13.6064 9.28077 13.6064Z" fill="#4171FF"/>
<path d="M20.7244 13.6064C21.3604 13.6064 21.876 13.0909 21.876 12.4548C21.876 11.8188 21.3604 11.3032 20.7244 11.3032C20.0884 11.3032 19.5728 11.8188 19.5728 12.4548C19.5728 13.0909 20.0884 13.6064 20.7244 13.6064Z" fill="#4171FF"/>
<path d="M24.3002 18.9097C24.5888 18.9097 24.8228 18.6757 24.8228 18.3871C24.8228 18.0985 24.5888 17.8645 24.3002 17.8645C24.0116 17.8645 23.7776 18.0985 23.7776 18.3871C23.7776 18.6757 24.0116 18.9097 24.3002 18.9097Z" fill="#A0B8FF"/>
<path d="M25.4469 17.4727C25.7355 17.4727 25.9695 17.2387 25.9695 16.9501C25.9695 16.6615 25.7355 16.4275 25.4469 16.4275C25.1583 16.4275 24.9243 16.6615 24.9243 16.9501C24.9243 17.2387 25.1583 17.4727 25.4469 17.4727Z" fill="#A0B8FF"/>
<path d="M26.4872 19.6404C26.7758 19.6404 27.0098 19.4064 27.0098 19.1178C27.0098 18.8292 26.7758 18.5952 26.4872 18.5952C26.1986 18.5952 25.9646 18.8292 25.9646 19.1178C25.9646 19.4064 26.1986 19.6404 26.4872 19.6404Z" fill="#A0B8FF"/>
<path d="M5.7047 18.9097C5.99332 18.9097 6.22729 18.6757 6.22729 18.3871C6.22729 18.0985 5.99332 17.8645 5.7047 17.8645C5.41609 17.8645 5.18213 18.0985 5.18213 18.3871C5.18213 18.6757 5.41609 18.9097 5.7047 18.9097Z" fill="#A0B8FF"/>
<path d="M4.55335 17.4727C4.84196 17.4727 5.07592 17.2387 5.07592 16.9501C5.07592 16.6615 4.84196 16.4275 4.55335 16.4275C4.26474 16.4275 4.03076 16.6615 4.03076 16.9501C4.03076 17.2387 4.26474 17.4727 4.55335 17.4727Z" fill="#A0B8FF"/>
<path d="M3.51305 19.6404C3.80167 19.6404 4.03564 19.4064 4.03564 19.1178C4.03564 18.8292 3.80167 18.5952 3.51305 18.5952C3.22444 18.5952 2.99048 18.8292 2.99048 19.1178C2.99048 19.4064 3.22444 19.6404 3.51305 19.6404Z" fill="#A0B8FF"/>
</svg>
