<svg width="15" height="16" viewBox="0 0 15 16" fill="none" xmlns="http://www.w3.org/2000/svg">
<mask id="path-1-inside-1_1093_14535" fill="white">
<path d="M10.1751 14.3128H7.8001C7.4501 14.3128 6.6876 14.2065 6.28135 13.8003L4.3876 12.3378L4.9626 11.594L6.9001 13.094C7.05635 13.244 7.4501 13.369 7.8001 13.369H10.1751C10.7376 13.369 11.3438 12.919 11.4688 12.4128L12.9813 7.81905C13.0813 7.54405 13.0626 7.29405 12.9313 7.1128C12.7938 6.91905 12.5438 6.80655 12.2376 6.80655H9.7376C9.4126 6.80655 9.1126 6.66905 8.90635 6.43155C8.69385 6.1878 8.6001 5.8628 8.6501 5.5253L8.9626 3.51905C9.0376 3.16905 8.8001 2.7753 8.4626 2.6628C8.15635 2.5503 7.7626 2.7128 7.6251 2.9128L5.0626 6.7253L4.2876 6.20655L6.8501 2.39405C7.24385 1.80655 8.10635 1.5253 8.78135 1.78155C9.5626 2.0378 10.0626 2.9003 9.8876 3.7003L9.58135 5.66905C9.5751 5.7128 9.5751 5.7753 9.61885 5.8253C9.6501 5.85655 9.69385 5.8753 9.74385 5.8753H12.2438C12.8563 5.8753 13.3876 6.13155 13.7001 6.5753C14.0063 7.00655 14.0688 7.5753 13.8688 8.1253L12.3751 12.6753C12.1438 13.5815 11.1813 14.3128 10.1751 14.3128Z"/>
</mask>
<path d="M10.1751 14.3128H7.8001C7.4501 14.3128 6.6876 14.2065 6.28135 13.8003L4.3876 12.3378L4.9626 11.594L6.9001 13.094C7.05635 13.244 7.4501 13.369 7.8001 13.369H10.1751C10.7376 13.369 11.3438 12.919 11.4688 12.4128L12.9813 7.81905C13.0813 7.54405 13.0626 7.29405 12.9313 7.1128C12.7938 6.91905 12.5438 6.80655 12.2376 6.80655H9.7376C9.4126 6.80655 9.1126 6.66905 8.90635 6.43155C8.69385 6.1878 8.6001 5.8628 8.6501 5.5253L8.9626 3.51905C9.0376 3.16905 8.8001 2.7753 8.4626 2.6628C8.15635 2.5503 7.7626 2.7128 7.6251 2.9128L5.0626 6.7253L4.2876 6.20655L6.8501 2.39405C7.24385 1.80655 8.10635 1.5253 8.78135 1.78155C9.5626 2.0378 10.0626 2.9003 9.8876 3.7003L9.58135 5.66905C9.5751 5.7128 9.5751 5.7753 9.61885 5.8253C9.6501 5.85655 9.69385 5.8753 9.74385 5.8753H12.2438C12.8563 5.8753 13.3876 6.13155 13.7001 6.5753C14.0063 7.00655 14.0688 7.5753 13.8688 8.1253L12.3751 12.6753C12.1438 13.5815 11.1813 14.3128 10.1751 14.3128Z" fill="#909090"/>
<path d="M6.28135 13.8003L6.98845 13.0932L6.94321 13.0479L6.89257 13.0088L6.28135 13.8003ZM4.3876 12.3378L3.59646 11.7262L2.9845 12.5177L3.77637 13.1293L4.3876 12.3378ZM4.9626 11.594L5.57477 10.8033L4.78351 10.1907L4.17146 10.9824L4.9626 11.594ZM6.9001 13.094L7.59263 12.3727L7.55429 12.3359L7.51227 12.3033L6.9001 13.094ZM11.4688 12.4128L10.519 12.1001L10.5071 12.1362L10.498 12.1731L11.4688 12.4128ZM12.9813 7.81905L12.0416 7.47731L12.0363 7.49173L12.0315 7.50631L12.9813 7.81905ZM12.9313 7.1128L12.1158 7.69157L12.1214 7.69931L12.9313 7.1128ZM8.90635 6.43155L9.66138 5.77586L9.66012 5.77441L8.90635 6.43155ZM8.6501 5.5253L7.66198 5.37139L7.66089 5.37875L8.6501 5.5253ZM8.9626 3.51905L7.9848 3.30952L7.97887 3.33719L7.97451 3.36514L8.9626 3.51905ZM8.4626 2.6628L8.11778 3.60147L8.132 3.60669L8.14637 3.61148L8.4626 2.6628ZM7.6251 2.9128L6.80101 2.34624L6.79515 2.35496L7.6251 2.9128ZM5.0626 6.7253L4.50635 7.55632L5.33578 8.1115L5.89255 7.28314L5.0626 6.7253ZM4.2876 6.20655L3.45765 5.64871L2.89874 6.48025L3.73135 7.03757L4.2876 6.20655ZM6.8501 2.39405L7.68005 2.95189L7.68079 2.95079L6.8501 2.39405ZM8.78135 1.78155L8.42643 2.71645L8.44788 2.72459L8.46968 2.73174L8.78135 1.78155ZM9.8876 3.7003L8.9107 3.4866L8.90417 3.51643L8.89948 3.54659L9.8876 3.7003ZM9.58135 5.66905L8.59315 5.51533L8.5914 5.52763L9.58135 5.66905ZM9.61885 5.8253L8.86627 6.4838L8.8882 6.50886L8.91174 6.53241L9.61885 5.8253ZM13.7001 6.5753L12.8825 7.15108L12.8848 7.1543L13.7001 6.5753ZM13.8688 8.1253L12.9291 7.78356L12.9237 7.79839L12.9187 7.81338L13.8688 8.1253ZM12.3751 12.6753L11.425 12.3634L11.4145 12.3954L11.4061 12.428L12.3751 12.6753ZM10.1751 13.3128H7.8001V15.3128H10.1751V13.3128ZM7.8001 13.3128C7.70699 13.3128 7.51734 13.2963 7.32359 13.2438C7.11605 13.1875 7.01538 13.1201 6.98845 13.0932L5.57424 14.5074C5.95356 14.8867 6.43727 15.0756 6.80004 15.174C7.17661 15.2762 7.54321 15.3128 7.8001 15.3128V13.3128ZM6.89257 13.0088L4.99882 11.5463L3.77637 13.1293L5.67012 14.5918L6.89257 13.0088ZM5.17874 12.9494L5.75374 12.2057L4.17146 10.9824L3.59646 11.7262L5.17874 12.9494ZM4.35042 12.3848L6.28792 13.8848L7.51227 12.3033L5.57477 10.8033L4.35042 12.3848ZM6.20757 13.8154C6.45048 14.0486 6.76149 14.175 6.98206 14.2432C7.22951 14.3197 7.51507 14.369 7.8001 14.369V12.369C7.77076 12.369 7.7332 12.3663 7.69059 12.3595C7.64819 12.3528 7.60762 12.3432 7.57282 12.3324C7.53687 12.3213 7.51662 12.3119 7.51165 12.3094C7.5097 12.3084 7.51571 12.3113 7.52769 12.3194C7.53902 12.327 7.56278 12.344 7.59263 12.3727L6.20757 13.8154ZM7.8001 14.369H10.1751V12.369H7.8001V14.369ZM10.1751 14.369C10.7106 14.369 11.2066 14.1617 11.5809 13.8846C11.9509 13.6108 12.307 13.19 12.4397 12.6525L10.498 12.1731C10.5032 12.1521 10.5063 12.1576 10.4869 12.1842C10.4679 12.21 10.4361 12.2437 10.3911 12.277C10.3465 12.31 10.2989 12.3352 10.2555 12.3509C10.2116 12.3669 10.1839 12.369 10.1751 12.369V14.369ZM12.4187 12.7255L13.9312 8.13179L12.0315 7.50631L10.519 12.1001L12.4187 12.7255ZM13.9211 8.16079C14.0977 7.6753 14.1228 7.05316 13.7413 6.52629L12.1214 7.69931C12.0681 7.62576 12.0492 7.55146 12.0456 7.50248C12.0425 7.4581 12.0523 7.44786 12.0416 7.47731L13.9211 8.16079ZM13.7469 6.53405C13.3734 6.0078 12.774 5.80655 12.2376 5.80655V7.80655C12.2701 7.80655 12.2683 7.81267 12.2422 7.80108C12.2142 7.78865 12.1621 7.75678 12.1158 7.69155L13.7469 6.53405ZM12.2376 5.80655H9.7376V7.80655H12.2376V5.80655ZM9.7376 5.80655C9.71678 5.80655 9.70128 5.80229 9.69011 5.79723C9.67885 5.79213 9.66936 5.78505 9.66138 5.77586L8.15131 7.08724C8.54987 7.54617 9.12656 7.80655 9.7376 7.80655V5.80655ZM9.66012 5.77441C9.65152 5.76455 9.64552 5.75366 9.64168 5.74015C9.63779 5.72648 9.63451 5.70418 9.6393 5.67185L7.66089 5.37875C7.56975 5.99395 7.74014 6.6156 8.15257 7.08868L9.66012 5.77441ZM9.63818 5.67921L9.95068 3.67296L7.97451 3.36514L7.66201 5.37139L9.63818 5.67921ZM9.9404 3.72858C10.1274 2.85594 9.57568 1.97973 8.77883 1.71412L8.14637 3.61148C8.05468 3.58092 8.01838 3.53097 8.00602 3.51001C7.99335 3.48854 7.96106 3.42027 7.9848 3.30952L9.9404 3.72858ZM8.80742 1.72413C8.38478 1.56887 7.96772 1.62029 7.66289 1.72241C7.37124 1.82012 7.02793 2.01626 6.80106 2.34627L8.44914 3.47933C8.39735 3.55466 8.34899 3.58971 8.33411 3.59985C8.31556 3.6125 8.30396 3.6169 8.29824 3.61881C8.29222 3.62083 8.27786 3.62502 8.25278 3.6258C8.22744 3.62658 8.17928 3.62406 8.11778 3.60147L8.80742 1.72413ZM6.79515 2.35496L4.23265 6.16746L5.89255 7.28314L8.45505 3.47063L6.79515 2.35496ZM5.61884 5.89428L4.84384 5.37553L3.73135 7.03757L4.50635 7.55632L5.61884 5.89428ZM5.11755 6.76439L7.68005 2.95188L6.02015 1.83621L3.45765 5.64871L5.11755 6.76439ZM7.68079 2.95079C7.81628 2.74862 8.18785 2.62588 8.42643 2.71645L9.13626 0.84665C8.02484 0.424722 6.67142 0.864475 6.01941 1.83731L7.68079 2.95079ZM8.46968 2.73174C8.77114 2.83062 8.97435 3.19562 8.9107 3.4866L10.8645 3.914C11.1508 2.60498 10.3541 1.24498 9.09301 0.831356L8.46968 2.73174ZM8.89948 3.54659L8.59323 5.51534L10.5695 5.82276L10.8757 3.85401L8.89948 3.54659ZM8.5914 5.52763C8.57168 5.66565 8.53103 6.10068 8.86627 6.4838L10.3714 5.16679C10.6192 5.44992 10.5785 5.75995 10.5713 5.81047L8.5914 5.52763ZM8.91174 6.53241C9.13643 6.75709 9.43709 6.8753 9.74385 6.8753V4.8753C9.9506 4.8753 10.1638 4.95601 10.326 5.11819L8.91174 6.53241ZM9.74385 6.8753H12.2438V4.8753H9.74385V6.8753ZM12.2438 6.8753C12.5777 6.8753 12.7826 7.00929 12.8825 7.15108L14.5177 5.99952C13.9926 5.25381 13.135 4.8753 12.2438 4.8753V6.8753ZM12.8848 7.1543C12.979 7.28699 13.0303 7.5051 12.9291 7.78356L14.8086 8.46704C15.1074 7.64549 15.0337 6.7261 14.5154 5.9963L12.8848 7.1543ZM12.9187 7.81338L11.425 12.3634L13.3252 12.9872L14.819 8.43722L12.9187 7.81338ZM11.4061 12.428C11.2952 12.863 10.7544 13.3128 10.1751 13.3128V15.3128C11.6083 15.3128 12.9925 14.3001 13.344 12.9225L11.4061 12.428Z" fill="#909090" mask="url(#path-1-inside-1_1093_14535)"/>
<mask id="path-3-inside-2_1093_14535" fill="white">
<path d="M3.36255 13.625H2.73755C1.5813 13.625 1.0188 13.0813 1.0188 11.9688V5.84375C1.0188 4.73125 1.5813 4.1875 2.73755 4.1875H3.36255C4.5188 4.1875 5.0813 4.73125 5.0813 5.84375V11.9688C5.0813 13.0813 4.5188 13.625 3.36255 13.625ZM2.73755 5.125C2.0563 5.125 1.9563 5.2875 1.9563 5.84375V11.9688C1.9563 12.525 2.0563 12.6875 2.73755 12.6875H3.36255C4.0438 12.6875 4.1438 12.525 4.1438 11.9688V5.84375C4.1438 5.2875 4.0438 5.125 3.36255 5.125H2.73755Z"/>
</mask>
<path d="M3.36255 13.625H2.73755C1.5813 13.625 1.0188 13.0813 1.0188 11.9688V5.84375C1.0188 4.73125 1.5813 4.1875 2.73755 4.1875H3.36255C4.5188 4.1875 5.0813 4.73125 5.0813 5.84375V11.9688C5.0813 13.0813 4.5188 13.625 3.36255 13.625ZM2.73755 5.125C2.0563 5.125 1.9563 5.2875 1.9563 5.84375V11.9688C1.9563 12.525 2.0563 12.6875 2.73755 12.6875H3.36255C4.0438 12.6875 4.1438 12.525 4.1438 11.9688V5.84375C4.1438 5.2875 4.0438 5.125 3.36255 5.125H2.73755Z" fill="#909090"/>
<path d="M5.0813 11.9688H4.0813H5.0813ZM3.36255 12.625H2.73755V14.625H3.36255V12.625ZM2.73755 12.625C2.29851 12.625 2.16614 12.5207 2.13875 12.4943C2.1184 12.4746 2.0188 12.3679 2.0188 11.9688H0.0187988C0.0187988 12.6821 0.200451 13.4035 0.750408 13.9339C1.29333 14.4575 2.02034 14.625 2.73755 14.625V12.625ZM2.0188 11.9688V5.84375H0.0187988V11.9688H2.0188ZM2.0188 5.84375C2.0188 5.44456 2.1184 5.33788 2.13875 5.31825C2.16614 5.29183 2.29851 5.1875 2.73755 5.1875V3.1875C2.02034 3.1875 1.29333 3.35504 0.750408 3.87863C0.200451 4.409 0.0187988 5.13044 0.0187988 5.84375H2.0188ZM2.73755 5.1875H3.36255V3.1875H2.73755V5.1875ZM3.36255 5.1875C3.80159 5.1875 3.93396 5.29183 3.96135 5.31825C3.9817 5.33788 4.0813 5.44456 4.0813 5.84375H6.0813C6.0813 5.13044 5.89965 4.409 5.34969 3.87863C4.80677 3.35504 4.07976 3.1875 3.36255 3.1875V5.1875ZM4.0813 5.84375V11.9688H6.0813V5.84375H4.0813ZM4.0813 11.9688C4.0813 12.3679 3.9817 12.4746 3.96135 12.4943C3.93396 12.5207 3.80159 12.625 3.36255 12.625V14.625C4.07976 14.625 4.80677 14.4575 5.34969 13.9339C5.89965 13.4035 6.0813 12.6821 6.0813 11.9688H4.0813ZM2.73755 4.125C2.53927 4.125 2.3188 4.13564 2.10626 4.18399C1.88491 4.23435 1.61445 4.33857 1.38435 4.56867C1.15154 4.80148 1.05083 5.07222 1.00475 5.28732C0.961753 5.48805 0.956299 5.68922 0.956299 5.84375H2.9563C2.9563 5.7876 2.95762 5.74949 2.95945 5.72346C2.96132 5.69701 2.963 5.69402 2.96039 5.70624C2.95435 5.73442 2.92122 5.86023 2.79856 5.98289C2.67862 6.10283 2.56089 6.13167 2.54989 6.13417C2.5477 6.13467 2.5952 6.125 2.73755 6.125V4.125ZM0.956299 5.84375V11.9688H2.9563V5.84375H0.956299ZM0.956299 11.9688C0.956299 12.1233 0.961753 12.3245 1.00475 12.5252C1.05083 12.7403 1.15154 13.011 1.38435 13.2438C1.61445 13.4739 1.88491 13.5782 2.10626 13.6285C2.3188 13.6769 2.53927 13.6875 2.73755 13.6875V11.6875C2.5952 11.6875 2.5477 11.6778 2.54989 11.6783C2.56089 11.6808 2.67862 11.7097 2.79856 11.8296C2.92122 11.9523 2.95435 12.0781 2.96039 12.1063C2.963 12.1185 2.96132 12.1155 2.95945 12.089C2.95762 12.063 2.9563 12.0249 2.9563 11.9688H0.956299ZM2.73755 13.6875H3.36255V11.6875H2.73755V13.6875ZM3.36255 13.6875C3.56083 13.6875 3.7813 13.6769 3.99384 13.6285C4.21519 13.5782 4.48565 13.4739 4.71575 13.2438C4.94856 13.011 5.04927 12.7403 5.09535 12.5252C5.13835 12.3245 5.1438 12.1233 5.1438 11.9688H3.1438C3.1438 12.0249 3.14248 12.063 3.14065 12.089C3.13878 12.1155 3.1371 12.1185 3.13971 12.1063C3.14575 12.0781 3.17888 11.9523 3.30154 11.8296C3.42148 11.7097 3.5392 11.6808 3.5502 11.6783C3.5524 11.6778 3.50489 11.6875 3.36255 11.6875V13.6875ZM5.1438 11.9688V5.84375H3.1438V11.9688H5.1438ZM5.1438 5.84375C5.1438 5.68922 5.13835 5.48805 5.09535 5.28732C5.04927 5.07222 4.94856 4.80148 4.71575 4.56867C4.48565 4.33857 4.21519 4.23435 3.99384 4.18399C3.7813 4.13564 3.56083 4.125 3.36255 4.125V6.125C3.50489 6.125 3.5524 6.13467 3.5502 6.13417C3.5392 6.13167 3.42148 6.10283 3.30154 5.98289C3.17888 5.86023 3.14575 5.73442 3.13971 5.70624C3.1371 5.69402 3.13878 5.69701 3.14065 5.72346C3.14248 5.74949 3.1438 5.7876 3.1438 5.84375H5.1438ZM3.36255 4.125H2.73755V6.125H3.36255V4.125Z" fill="#909090" mask="url(#path-3-inside-2_1093_14535)"/>
</svg>
