<svg width="18" height="18" viewBox="0 0 18 18" fill="none" xmlns="http://www.w3.org/2000/svg">
<path d="M9.07593 1C7.46508 1.00191 5.92075 1.64508 4.7817 2.78843C3.64266 3.93177 3.00191 5.48194 3.00001 7.09888C2.99808 8.42024 3.42807 9.70575 4.22403 10.7582C4.22403 10.7582 4.38974 10.9772 4.4168 11.0088L9.07593 16.5244L13.7373 11.006C13.7616 10.9767 13.9278 10.7582 13.9278 10.7582L13.9284 10.7565C14.7239 9.70455 15.1537 8.41963 15.1518 7.09888C15.1499 5.48194 14.5092 3.93177 13.3702 2.78843C12.2311 1.64508 10.6868 1.00191 9.07593 1ZM9.07593 9.31665C8.63894 9.31665 8.21177 9.18658 7.84844 8.94289C7.4851 8.6992 7.20191 8.35283 7.03468 7.94758C6.86746 7.54234 6.8237 7.09642 6.90896 6.66621C6.99421 6.236 7.20463 5.84084 7.51363 5.53067C7.82262 5.22051 8.2163 5.00929 8.64489 4.92372C9.07348 4.83814 9.51772 4.88206 9.92144 5.04992C10.3252 5.21778 10.6702 5.50204 10.913 5.86675C11.1558 6.23146 11.2854 6.66024 11.2854 7.09888C11.2846 7.68684 11.0516 8.25051 10.6374 8.66627C10.2232 9.08202 9.66168 9.31592 9.07593 9.31665Z" fill="#909090"/>
</svg>
