<svg width="202" height="83" viewBox="0 0 202 83" fill="none" xmlns="http://www.w3.org/2000/svg">
<g filter="url(#filter0_d_1093_9275)">
<rect x="8" y="7.9613" width="186" height="57.5234" rx="8" fill="white"/>
<path d="M57.6044 23.6333H58.6124V25.1693C58.6124 27.5813 57.3764 29.9693 55.4924 30.8693L54.7724 29.8733C56.4644 29.0933 57.6044 27.0413 57.6044 25.1693V23.6333ZM57.8684 23.6333H58.8644V25.1693C58.8644 26.9813 59.9924 28.8773 61.7084 29.5973L61.0124 30.5933C59.1044 29.7413 57.8684 27.5213 57.8684 25.1693V23.6333ZM55.1684 23.0813H61.3004V24.1253H55.1684V23.0813ZM62.5844 21.9893H63.8444V32.9573H62.5844V21.9893ZM66.7355 22.5293H73.7435V23.5373H66.7355V22.5293ZM65.4995 26.5253H75.4355V27.5333H65.4995V26.5253ZM72.9635 22.5293H74.1995V23.3693C74.1995 24.3053 74.1995 25.3493 73.8515 26.8253L72.6035 26.7893C72.9635 25.3253 72.9635 24.2933 72.9635 23.3693V22.5293ZM66.6875 28.8773H74.1995V32.8253H66.6875V28.8773ZM72.9635 29.8613H67.9235V31.8173H72.9635V29.8613ZM81.4779 28.6013H82.7379V30.4013H81.4779V28.6013ZM86.2779 21.9893H87.5379V32.9573H86.2779V21.9893ZM78.7299 30.9893L78.5739 29.9573C80.6019 29.9453 83.3019 29.9333 85.6419 29.6213L85.7259 30.5453C83.3139 30.9653 80.7099 30.9893 78.7299 30.9893ZM78.7899 23.2733H85.4259V24.2693H78.7899V23.2733ZM82.1019 24.8093C83.6979 24.8093 84.7899 25.6253 84.7899 26.8493C84.7899 28.0853 83.6979 28.8893 82.1019 28.8893C80.5179 28.8893 79.4259 28.0853 79.4259 26.8493C79.4259 25.6253 80.5179 24.8093 82.1019 24.8093ZM82.1019 25.7693C81.2379 25.7693 80.6259 26.1893 80.6259 26.8493C80.6259 27.5213 81.2379 27.9293 82.1019 27.9293C82.9779 27.9293 83.5899 27.5213 83.5899 26.8493C83.5899 26.1893 82.9779 25.7693 82.1019 25.7693ZM81.4779 22.0133H82.7379V23.8373H81.4779V22.0133ZM92.1809 27.5573H93.4409V29.9813H92.1809V27.5573ZM97.0169 21.9893H98.2769V30.3173H97.0169V21.9893ZM90.6089 31.7213H98.5289V32.7413H90.6089V31.7213ZM90.6089 29.5133H91.8689V31.9973H90.6089V29.5133ZM89.3009 27.9773L89.1329 26.9573C91.1489 26.9573 93.8489 26.9333 96.1649 26.6333L96.2489 27.5453C93.8969 27.9293 91.2809 27.9773 89.3009 27.9773ZM94.8569 28.4213H97.3169V29.3093H94.8569V28.4213ZM92.6849 22.4093C94.2809 22.4093 95.3969 23.1773 95.3969 24.3413C95.3969 25.5053 94.2809 26.2613 92.6849 26.2613C91.0769 26.2613 89.9729 25.5053 89.9729 24.3413C89.9729 23.1773 91.0769 22.4093 92.6849 22.4093ZM92.6849 23.3333C91.7849 23.3333 91.1609 23.7053 91.1609 24.3413C91.1609 24.9653 91.7849 25.3373 92.6849 25.3373C93.5729 25.3373 94.1969 24.9653 94.1969 24.3413C94.1969 23.7053 93.5729 23.3333 92.6849 23.3333ZM107.108 21.9773H108.368V32.9453H107.108V21.9773ZM108.032 26.3213H110.012V27.3533H108.032V26.3213ZM104.264 23.1413H105.5C105.5 26.3333 104.144 29.1533 100.556 30.9533L99.848 29.9933C102.812 28.4813 104.264 26.2853 104.264 23.3573V23.1413ZM100.4 23.1413H104.912V24.1613H100.4V23.1413ZM118.327 21.9893H119.587V27.8813H118.327V21.9893ZM112.423 28.3973H113.659V29.5853H118.339V28.3973H119.587V32.8253H112.423V28.3973ZM113.659 30.5693V31.8173H118.339V30.5693H113.659ZM113.671 22.4813C115.351 22.4813 116.575 23.5253 116.575 25.0373C116.575 26.5373 115.351 27.5933 113.671 27.5933C111.991 27.5933 110.755 26.5373 110.755 25.0373C110.755 23.5253 111.991 22.4813 113.671 22.4813ZM113.671 23.5253C112.687 23.5253 111.979 24.1253 111.979 25.0373C111.979 25.9493 112.687 26.5493 113.671 26.5493C114.655 26.5493 115.351 25.9493 115.351 25.0373C115.351 24.1253 114.655 23.5253 113.671 23.5253ZM128.478 21.9893H129.726V32.9573H128.478V21.9893ZM129.438 26.3933H131.43V27.4373H129.438V26.3933ZM121.17 23.6813H127.602V24.6893H121.17V23.6813ZM124.422 25.4813C125.982 25.4813 127.134 26.5373 127.134 28.0373C127.134 29.5493 125.982 30.6053 124.422 30.6053C122.85 30.6053 121.698 29.5493 121.698 28.0373C121.698 26.5373 122.85 25.4813 124.422 25.4813ZM124.422 26.5133C123.534 26.5133 122.898 27.1133 122.898 28.0373C122.898 28.9613 123.534 29.5733 124.422 29.5733C125.298 29.5733 125.934 28.9613 125.934 28.0373C125.934 27.1133 125.298 26.5133 124.422 26.5133ZM123.774 22.1453H125.034V24.1013H123.774V22.1453ZM132.941 23.0093H139.949V24.0293H132.941V23.0093ZM131.909 30.4853H141.821V31.5173H131.909V30.4853ZM135.605 26.6333H136.865V31.0013H135.605V26.6333ZM139.481 23.0093H140.741V24.0773C140.741 25.4453 140.741 26.9693 140.321 29.2373L139.061 29.0933C139.481 26.9573 139.481 25.3973 139.481 24.0773V23.0093ZM114.828 41.8013H115.848V42.2453C115.848 44.1293 114.732 45.7133 112.776 46.3013L112.176 45.3173C113.868 44.8253 114.828 43.5893 114.828 42.2453V41.8013ZM115.056 41.8013H116.088V42.2453C116.088 43.4813 117.012 44.6573 118.692 45.1253L118.116 46.1093C116.16 45.5453 115.056 44.0213 115.056 42.2453V41.8013ZM112.524 41.1893H118.392V42.1853H112.524V41.1893ZM114.828 39.9413H116.088V41.6093H114.828V39.9413ZM119.52 39.9893H120.78V46.4453H119.52V39.9893ZM120.432 42.6653H122.328V43.7093H120.432V42.6653ZM113.784 46.9373H120.78V50.8253H113.784V46.9373ZM119.544 47.9333H115.02V49.8173H119.544V47.9333ZM130.139 39.9773H131.399V50.9453H130.139V39.9773ZM131.063 44.3213H133.043V45.3533H131.063V44.3213ZM127.295 41.1413H128.531C128.531 44.3333 127.175 47.1533 123.587 48.9533L122.879 47.9933C125.843 46.4813 127.295 44.2853 127.295 41.3573V41.1413ZM123.431 41.1413H127.943V42.1613H123.431V41.1413ZM133.558 41.7653H138.91V42.7733H133.558V41.7653ZM136.246 43.3973C137.626 43.3973 138.622 44.4533 138.622 45.9533C138.622 47.4533 137.626 48.4973 136.246 48.4973C134.878 48.4973 133.87 47.4533 133.87 45.9533C133.87 44.4533 134.878 43.3973 136.246 43.3973ZM136.246 44.4533C135.514 44.4533 134.986 45.0533 134.986 45.9533C134.986 46.8653 135.514 47.4413 136.246 47.4413C136.978 47.4413 137.506 46.8653 137.506 45.9533C137.506 45.0533 136.978 44.4533 136.246 44.4533ZM141.718 39.9893H142.918V50.9573H141.718V39.9893ZM140.158 44.5373H142.114V45.5573H140.158V44.5373ZM139.39 40.2173H140.566V50.4533H139.39V40.2173ZM135.634 40.3013H136.87V42.3893H135.634V40.3013ZM144.261 48.5813H154.197V49.6133H144.261V48.5813ZM148.581 46.0853H149.829V48.8573H148.581V46.0853ZM145.365 40.7333H146.625V42.5693H151.797V40.7333H153.045V46.3853H145.365V40.7333ZM146.625 43.5653V45.3653H151.797V43.5653H146.625ZM159.249 43.8053H161.229V44.8373H159.249V43.8053ZM157.077 40.9853H158.049V42.9653C158.049 45.3413 157.209 47.6573 155.541 48.6773L154.773 47.7293C156.321 46.7933 157.077 44.8373 157.077 42.9653V40.9853ZM157.341 40.9853H158.289V42.9173C158.289 44.6813 158.961 46.5293 160.425 47.4533L159.717 48.4373C158.073 47.4173 157.341 45.1493 157.341 42.9173V40.9853ZM163.101 39.9893H164.301V50.9573H163.101V39.9893ZM160.869 40.1933H162.045V50.4293H160.869V40.1933ZM167.936 45.6053H169.184V48.7853H167.936V45.6053ZM171.956 45.6053H173.216V48.7853H171.956V45.6053ZM165.62 48.5813H175.556V49.6133H165.62V48.5813ZM170.564 40.6133C172.904 40.6133 174.596 41.7413 174.596 43.4933C174.596 45.2333 172.904 46.3613 170.564 46.3613C168.224 46.3613 166.532 45.2333 166.532 43.4933C166.532 41.7413 168.224 40.6133 170.564 40.6133ZM170.564 41.5973C168.908 41.5973 167.756 42.3293 167.756 43.4933C167.756 44.6453 168.908 45.3773 170.564 45.3773C172.22 45.3773 173.372 44.6453 173.372 43.4933C173.372 42.3293 172.22 41.5973 170.564 41.5973ZM177.343 47.1533L177.139 42.3533L177.103 40.9133H178.495L178.459 42.3533L178.267 47.1533H177.343ZM177.799 50.1293C177.283 50.1293 176.875 49.7213 176.875 49.1573C176.875 48.5813 177.283 48.1853 177.799 48.1853C178.327 48.1853 178.723 48.5813 178.723 49.1573C178.723 49.7213 178.327 50.1293 177.799 50.1293Z" fill="#676767"/>
<path d="M27.9841 43.9613H29.9161V45.5453H27.9841V43.9613ZM26.5321 39.8213H28.4761V51.0773H26.5321V39.8213ZM19.8481 40.8893H21.7801V47.8973H19.8481V40.8893ZM19.8481 46.7933H20.8561C22.4281 46.7933 24.1921 46.6853 25.9801 46.3373L26.1721 47.9093C24.3361 48.2933 22.4881 48.3893 20.8561 48.3893H19.8481V46.7933ZM32.6031 45.5573H34.5231V48.2093H32.6031V45.5573ZM33.5391 40.4573C35.2911 40.4573 36.6471 41.6573 36.6471 43.2893C36.6471 44.9333 35.2911 46.1333 33.5391 46.1333C31.7871 46.1333 30.4311 44.9333 30.4311 43.2893C30.4311 41.6573 31.7871 40.4573 33.5391 40.4573ZM33.5391 42.1013C32.8431 42.1013 32.3151 42.4973 32.3151 43.2893C32.3151 44.0813 32.8431 44.4893 33.5391 44.4893C34.2351 44.4893 34.7631 44.0813 34.7631 43.2893C34.7631 42.4973 34.2351 42.1013 33.5391 42.1013ZM37.3311 39.8333H39.2631V51.0893H37.3311V39.8333ZM38.6511 44.1173H40.5831V45.7133H38.6511V44.1173ZM30.3471 48.9653L30.1311 47.4173C32.0271 47.4173 34.6071 47.4413 36.8151 47.1413L36.9591 48.5333C34.6431 48.9893 32.1951 48.9773 30.3471 48.9653ZM43.5524 40.5293H49.0244V45.5693H43.5524V40.5293ZM47.1164 42.0533H45.4604V44.0453H47.1164V42.0533ZM50.2964 39.8453H52.2284V46.0733H50.2964V39.8453ZM51.7004 42.1373H53.6324V43.7093H51.7004V42.1373ZM47.5004 47.2493H49.1324V47.5013C49.1324 49.2413 47.8964 50.7173 44.8964 51.0653L44.2124 49.6013C46.7804 49.3373 47.5004 48.3173 47.5004 47.5013V47.2493ZM47.9444 47.2493H49.5764V47.5013C49.5764 48.2693 50.3324 49.3373 52.8524 49.6253L52.1804 51.0893C49.1804 50.7533 47.9444 49.1813 47.9444 47.5013V47.2493ZM44.7164 46.5293H52.3484V48.0413H44.7164V46.5293ZM55.1795 42.6893H63.0755V44.2133H55.1795V42.6893ZM53.9915 45.1973H64.1795V46.7213H53.9915V45.1973ZM55.1795 40.2293H57.1115V43.4453H55.1795V40.2293ZM55.0595 49.3373H63.1355V50.8733H55.0595V49.3373ZM55.0595 47.4893H57.0035V49.7453H55.0595V47.4893ZM71.0487 40.4213H72.7287V41.2013C72.7287 43.6373 71.2887 45.9533 68.0127 46.5533L67.1967 44.9453C70.0407 44.4773 71.0487 42.6533 71.0487 41.2013V40.4213ZM71.4447 40.4213H73.1247V41.2013C73.1247 42.7013 74.1087 44.4773 76.9767 44.9453L76.1607 46.5533C72.8727 45.9413 71.4447 43.6853 71.4447 41.2013V40.4213ZM67.0527 48.2333H77.2407V49.8053H67.0527V48.2333ZM85.3398 39.8213H87.2718V51.1253H85.3398V39.8213ZM83.6238 43.6373H85.5438V45.1973H83.6238V43.6373ZM78.2238 47.1173H79.1598C80.8758 47.1173 82.2918 47.0933 83.8878 46.8653L84.0558 48.3893C82.4238 48.6413 80.9238 48.6653 79.1598 48.6653H78.2238V47.1173ZM78.2238 40.7213H83.4438V42.2813H80.1558V47.5853H78.2238V40.7213ZM79.7238 43.8413H83.1198V45.3413H79.7238V43.8413ZM95.8748 39.8333H97.8188V51.1373H95.8748V39.8333ZM89.0588 46.9133H90.0668C92.5028 46.9133 93.7988 46.8773 95.2148 46.6013L95.3828 48.1853C93.9548 48.4733 92.5628 48.5093 90.0668 48.5093H89.0588V46.9133ZM89.0588 40.7933H94.5548V42.3413H90.9788V47.5253H89.0588V40.7933ZM103.542 43.8533H105.246V45.4013H103.542V43.8533ZM106.974 39.8333H108.81V51.0893H106.974V39.8333ZM104.646 39.9773H106.446V50.6213H104.646V39.9773ZM101.61 40.5413C103.122 40.5413 104.082 42.1133 104.082 44.7293C104.082 47.3573 103.122 48.9173 101.61 48.9173C100.11 48.9173 99.1499 47.3573 99.1499 44.7293C99.1499 42.1133 100.11 40.5413 101.61 40.5413ZM101.61 42.3773C101.142 42.3773 100.902 43.0613 100.902 44.7293C100.902 46.3973 101.142 47.0813 101.61 47.0813C102.09 47.0813 102.33 46.3973 102.33 44.7293C102.33 43.0613 102.09 42.3773 101.61 42.3773Z" fill="#4171FF"/>
<path d="M101.845 72.799C101.452 73.4188 100.548 73.4188 100.155 72.799L95.5294 65.4965C95.1076 64.8307 95.586 63.9613 96.3741 63.9613L105.626 63.9613C106.414 63.9613 106.893 64.8307 106.471 65.4965L101.845 72.799Z" fill="white"/>
</g>
<defs>
<filter id="filter0_d_1093_9275" x="0" y="0.961304" width="202" height="81.3026" filterUnits="userSpaceOnUse" color-interpolation-filters="sRGB">
<feFlood flood-opacity="0" result="BackgroundImageFix"/>
<feColorMatrix in="SourceAlpha" type="matrix" values="0 0 0 0 0 0 0 0 0 0 0 0 0 0 0 0 0 0 127 0" result="hardAlpha"/>
<feOffset dy="1"/>
<feGaussianBlur stdDeviation="4"/>
<feComposite in2="hardAlpha" operator="out"/>
<feColorMatrix type="matrix" values="0 0 0 0 0.33749 0 0 0 0 0.33749 0 0 0 0 0.33749 0 0 0 0.15 0"/>
<feBlend mode="normal" in2="BackgroundImageFix" result="effect1_dropShadow_1093_9275"/>
<feBlend mode="normal" in="SourceGraphic" in2="effect1_dropShadow_1093_9275" result="shape"/>
</filter>
</defs>
</svg>
