<svg width="11" height="13" viewBox="0 0 11 13" fill="none" xmlns="http://www.w3.org/2000/svg">
<path id="Vector" d="M4.56292 12.4607C3.63893 12.2349 2.88618 11.5303 2.47819 10.4781C1.81132 8.74473 2.07899 6.07276 3.7158 4.01288C3.22815 3.74209 2.64243 3.49882 1.63492 3.25257L0.587012 2.99645L1.10092 0.893808L2.14883 1.14993C3.87829 1.57263 4.6952 2.04975 5.42056 2.51594C6.50783 1.86349 7.93194 1.31626 9.39482 0.995892L10.4505 0.764782L10.91 2.87937L9.85432 3.11048C8.9465 3.30907 8.04994 3.61339 7.28884 3.97085C8.64045 5.55405 8.87791 7.79456 8.43211 9.5134C7.95861 11.3456 6.75605 12.5048 5.2945 12.5394C5.0416 12.5462 4.79729 12.518 4.56562 12.4614L4.56292 12.4607ZM5.50898 5.23776C4.34051 6.63122 4.04832 8.5392 4.49584 9.69834C4.76149 10.3868 5.12604 10.3787 5.24643 10.3766C5.75425 10.3663 6.15987 9.66455 6.34019 8.9735C6.6552 7.75474 6.44194 6.20949 5.50898 5.23776Z" fill="#6284E8"/>
</svg>
