<svg width="14" height="17" viewBox="0 0 14 17" fill="none" xmlns="http://www.w3.org/2000/svg">
<path id="Vector" d="M5.47986 15.9616C4.31527 15.6659 3.36652 14.7431 2.8523 13.3649C2.01178 11.0947 2.34914 7.59519 4.41215 4.89732C3.79753 4.54266 3.0593 4.22405 1.78945 3.90153L0.468676 3.56608L1.1164 0.81221L2.43718 1.14766C4.61696 1.70128 5.64658 2.32617 6.56082 2.93675C7.9312 2.08223 9.72613 1.36551 11.5699 0.945912L12.9005 0.643222L13.4796 3.41274L12.1491 3.71543C11.0049 3.97553 9.87485 4.37411 8.91558 4.84227C10.6191 6.91583 10.9184 9.85028 10.3565 12.1015C9.75974 14.5011 8.24405 16.0193 6.40193 16.0647C6.08319 16.0737 5.77525 16.0367 5.48326 15.9625L5.47986 15.9616ZM6.67226 6.50158C5.19954 8.32663 4.83126 10.8255 5.39531 12.3437C5.73013 13.2454 6.1896 13.2348 6.34135 13.2321C6.9814 13.2186 7.49263 12.2994 7.71991 11.3944C8.11694 9.79812 7.84815 7.77427 6.67226 6.50158Z" fill="url(#paint0_linear_1043_9002)"/>
<defs>
<linearGradient id="paint0_linear_1043_9002" x1="7.93991" y1="-0.616653" x2="3.83545" y2="15.544" gradientUnits="userSpaceOnUse">
<stop stop-color="#3A6CFF"/>
<stop offset="1" stop-color="#FFE4E0"/>
</linearGradient>
</defs>
</svg>
