<svg width="18" height="18" viewBox="0 0 18 18" fill="none" xmlns="http://www.w3.org/2000/svg">
<g id="Group 1437256860">
<path id="Vector" d="M15.4805 3.60012C16.4746 3.60012 17.2805 2.7942 17.2805 1.80006C17.2805 0.805913 16.4746 0 15.4805 0C14.4863 0 13.6804 0.805913 13.6804 1.80006C13.6804 2.7942 14.4863 3.60012 15.4805 3.60012Z" fill="#4974F5"/>
<path id="Vector_2" d="M7.91786 18.0001C6.68507 18.0001 5.52058 17.3438 4.68314 16.1428C3.31019 14.1629 2.82498 10.7116 4.25185 7.61013C3.55459 7.41899 2.74232 7.29277 1.39811 7.29277H0V4.4834H1.39811C3.70554 4.4834 4.88082 4.83321 5.9375 5.19746C7.10559 4.03981 8.73013 2.91101 10.4733 2.0563L11.7312 1.43961L12.9604 3.96408L11.7025 4.58077C10.6206 5.11091 9.58553 5.77087 8.73732 6.45609C10.9261 8.03568 11.9145 10.7874 11.8822 13.0918C11.8498 15.5478 10.6925 17.3798 8.86311 17.8739C8.54683 17.9605 8.23055 18.0001 7.92145 18.0001H7.91786ZM6.88634 8.60189C5.84405 10.7188 6.06329 13.2145 6.98338 14.538C7.52969 15.3242 7.98614 15.2016 8.1371 15.1619C8.77326 14.9924 9.06798 13.9826 9.08235 13.0558C9.10392 11.4221 8.35993 9.53955 6.88634 8.60189Z" fill="#4974F5"/>
</g>
</svg>
