<svg width="24" height="24" viewBox="0 0 24 24" fill="none" xmlns="http://www.w3.org/2000/svg">
<g id="message">
<g id="vuesax/linear/message">
<g id="message_2">
<path id="Vector" d="M8.85 18.4068H8.4C4.8 18.4068 3 17.5593 3 13.322V9.08475C3 5.69492 3.8 4 7.4 4H16.6C20.2 4 21 5.69492 21 9.08475V13.322C21 16.7119 19.2 18.4068 15.6 18.4068H15.15C14.871 18.4068 14.601 18.5339 14.43 18.7458L13.08 20.4407C12.486 21.1864 11.514 21.1864 10.92 20.4407L9.57 18.7458C9.426 18.5593 9.093 18.4068 8.85 18.4068Z" stroke="#4D4D4D" stroke-width="1.3" stroke-miterlimit="10" stroke-linecap="round" stroke-linejoin="round"/>
<path id="Vector_2" d="M15.9965 11H16.0054" stroke="#4D4D4D" stroke-width="2" stroke-linecap="round" stroke-linejoin="round"/>
<path id="Vector_3" d="M11.9955 11H12.0045" stroke="#4D4D4D" stroke-width="2" stroke-linecap="round" stroke-linejoin="round"/>
<path id="Vector_4" d="M7.99451 11H8.00349" stroke="#4D4D4D" stroke-width="2" stroke-linecap="round" stroke-linejoin="round"/>
</g>
</g>
</g>
</svg>
