<svg width="30" height="30" viewBox="0 0 30 30" fill="none" xmlns="http://www.w3.org/2000/svg">
<path d="M15 30C23.2843 30 30 23.2843 30 15C30 6.71573 23.2843 0 15 0C6.71573 0 0 6.71573 0 15C0 23.2843 6.71573 30 15 30Z" fill="#D9E3FF"/>
<path d="M4.6984 18.1548C6.1094 18.1548 7.25324 17.2427 7.25324 16.1177C7.25324 14.9926 6.1094 14.0806 4.6984 14.0806C3.2874 14.0806 2.14355 14.9926 2.14355 16.1177C2.14355 17.2427 3.2874 18.1548 4.6984 18.1548Z" fill="#A0B8FF"/>
<path d="M25.3017 18.1548C26.7127 18.1548 27.8565 17.2427 27.8565 16.1177C27.8565 14.9926 26.7127 14.0806 25.3017 14.0806C23.8907 14.0806 22.7468 14.9926 22.7468 16.1177C22.7468 17.2427 23.8907 18.1548 25.3017 18.1548Z" fill="#A0B8FF"/>
<path d="M15.0001 23.4628C11.342 23.4628 8.36621 21.237 8.36621 18.4983C8.36621 18.0967 8.6904 17.7725 9.09202 17.7725C9.49363 17.7725 9.81782 18.0967 9.81782 18.4983C9.81782 20.4338 12.1404 22.0112 15.0001 22.0112C17.8598 22.0112 20.1823 20.4338 20.1823 18.4983C20.1823 18.0967 20.5065 17.7725 20.9082 17.7725C21.3098 17.7725 21.634 18.0967 21.634 18.4983C21.634 21.237 18.6581 23.4628 15.0001 23.4628Z" fill="#4171FF"/>
<path d="M8.88398 7.64527L9.89043 9.68721C9.96785 9.84204 10.1178 9.95333 10.2872 9.97753L12.5372 10.3066C12.9727 10.3695 13.142 10.9017 12.8324 11.2066L11.2017 12.7937C11.0759 12.9146 11.0179 13.0888 11.0517 13.263L11.434 15.5033C11.5066 15.934 11.0566 16.263 10.6646 16.0598L8.65173 15.0001C8.49689 14.9179 8.31301 14.9179 8.15818 15.0001L6.14527 16.0598C5.75817 16.263 5.30334 15.934 5.37592 15.5033L5.75817 13.263C5.7872 13.0937 5.72914 12.9146 5.60817 12.7937L3.97753 11.2066C3.66301 10.9017 3.83721 10.3695 4.27269 10.3066L6.52269 9.97753C6.69688 9.95333 6.84205 9.84204 6.91947 9.68721L7.92592 7.64527C8.11947 7.25333 8.68075 7.25333 8.8743 7.64527H8.88398Z" fill="#4171FF"/>
<path d="M22.0644 7.64527L23.0708 9.68721C23.1483 9.84204 23.2983 9.95333 23.4676 9.97753L25.7176 10.3066C26.1531 10.3695 26.3225 10.9017 26.0128 11.2066L24.3821 12.7937C24.2563 12.9146 24.1983 13.0888 24.2321 13.263L24.6144 15.5033C24.687 15.934 24.237 16.263 23.845 16.0598L21.8321 15.0001C21.6773 14.9179 21.4934 14.9179 21.3386 15.0001L19.3257 16.0598C18.9386 16.263 18.4838 15.934 18.5563 15.5033L18.9386 13.263C18.9676 13.0937 18.9096 12.9146 18.7886 12.7937L17.158 11.2066C16.8434 10.9017 17.0176 10.3695 17.4531 10.3066L19.7031 9.97753C19.8773 9.95333 20.0225 9.84204 20.0999 9.68721L21.1063 7.64527C21.2999 7.25333 21.8612 7.25333 22.0547 7.64527H22.0644Z" fill="#4171FF"/>
</svg>
