<svg width="18" height="19" viewBox="0 0 18 19" fill="none" xmlns="http://www.w3.org/2000/svg">
<path opacity="0.4" d="M6.75 2C4.785 2 3.1875 3.5975 3.1875 5.5625C3.1875 7.49 4.695 9.05 6.66 9.1175C6.72 9.11 6.78 9.11 6.825 9.1175C6.84 9.1175 6.8475 9.1175 6.8625 9.1175C6.87 9.1175 6.87 9.1175 6.8775 9.1175C8.7975 9.05 10.305 7.49 10.3125 5.5625C10.3125 3.5975 8.715 2 6.75 2Z" fill="#6284E8"/>
<path d="M10.56 11.1124C8.46747 9.71741 5.05497 9.71741 2.94747 11.1124C1.99497 11.7499 1.46997 12.6124 1.46997 13.5349C1.46997 14.4574 1.99497 15.3124 2.93997 15.9424C3.98997 16.6474 5.36997 16.9999 6.74997 16.9999C8.12997 16.9999 9.50997 16.6474 10.56 15.9424C11.505 15.3049 12.03 14.4499 12.03 13.5199C12.0225 12.5974 11.505 11.7424 10.56 11.1124Z" fill="#4171FF"/>
<path opacity="0.4" d="M14.9925 6.00507C15.1125 7.46008 14.0775 8.73507 12.645 8.90758C12.6375 8.90758 12.6375 8.90758 12.63 8.90758H12.6075C12.5625 8.90758 12.5175 8.90757 12.48 8.92257C11.7525 8.96007 11.085 8.72757 10.5825 8.30008C11.355 7.61007 11.7975 6.57507 11.7075 5.45007C11.655 4.84257 11.445 4.28757 11.13 3.81507C11.415 3.67257 11.745 3.58257 12.0825 3.55257C13.5525 3.42507 14.865 4.52007 14.9925 6.00507Z" fill="#6284E8"/>
<path d="M16.4924 12.9426C16.4324 13.6701 15.9674 14.3001 15.1874 14.7276C14.4374 15.1401 13.4924 15.3351 12.5549 15.3126C13.0949 14.8251 13.4099 14.2176 13.4699 13.5726C13.5449 12.6426 13.1024 11.7501 12.2174 11.0376C11.7149 10.6401 11.1299 10.3251 10.4924 10.0926C12.1499 9.61255 14.2349 9.93505 15.5174 10.9701C16.2074 11.5251 16.5599 12.2226 16.4924 12.9426Z" fill="#4171FF"/>
</svg>
