<svg width="19" height="19" viewBox="0 0 19 19" fill="none" xmlns="http://www.w3.org/2000/svg">
<path opacity="0.4" d="M16.6883 6.79245V12.2074C16.6883 13.0941 16.2133 13.9175 15.4454 14.3687L10.7429 17.0841C9.97496 17.5274 9.02496 17.5274 8.24913 17.0841L3.54663 14.3687C2.77871 13.9254 2.30371 13.102 2.30371 12.2074V6.79245C2.30371 5.90578 2.77871 5.08241 3.54663 4.63116L8.24913 1.91575C9.01704 1.47242 9.96704 1.47242 10.7429 1.91575L15.4454 4.63116C16.2133 5.08241 16.6883 5.89786 16.6883 6.79245Z" fill="#4171FF"/>
<path d="M9.5001 9.49994C10.5188 9.49994 11.3447 8.67407 11.3447 7.65534C11.3447 6.6366 10.5188 5.81079 9.5001 5.81079C8.48137 5.81079 7.65552 6.6366 7.65552 7.65534C7.65552 8.67407 8.48137 9.49994 9.5001 9.49994Z" fill="#4171FF"/>
<path d="M11.6218 13.1892C12.263 13.1892 12.6351 12.4767 12.2788 11.9463C11.7405 11.1467 10.6955 10.6084 9.50009 10.6084C8.30467 10.6084 7.25967 11.1467 6.72134 11.9463C6.36509 12.4767 6.73717 13.1892 7.37842 13.1892H11.6218Z" fill="#4171FF"/>
</svg>
