<svg width="18" height="19" viewBox="0 0 18 19" fill="none" xmlns="http://www.w3.org/2000/svg">
<path d="M9.07593 2C7.46508 2.00191 5.92075 2.64508 4.7817 3.78843C3.64266 4.93177 3.00191 6.48194 3.00001 8.09888C2.99808 9.42024 3.42807 10.7057 4.22403 11.7582C4.22403 11.7582 4.38974 11.9772 4.4168 12.0088L9.07593 17.5244L13.7373 12.006C13.7616 11.9767 13.9278 11.7582 13.9278 11.7582L13.9284 11.7565C14.7239 10.7045 15.1537 9.41963 15.1518 8.09888C15.1499 6.48194 14.5092 4.93177 13.3702 3.78843C12.2311 2.64508 10.6868 2.00191 9.07593 2ZM9.07593 10.3167C8.63894 10.3167 8.21177 10.1866 7.84844 9.94289C7.4851 9.6992 7.20191 9.35283 7.03468 8.94758C6.86746 8.54234 6.8237 8.09642 6.90896 7.66621C6.99421 7.236 7.20463 6.84084 7.51363 6.53067C7.82262 6.22051 8.2163 6.00929 8.64489 5.92372C9.07348 5.83814 9.51772 5.88206 9.92144 6.04992C10.3252 6.21778 10.6702 6.50204 10.913 6.86675C11.1558 7.23146 11.2854 7.66024 11.2854 8.09888C11.2846 8.68684 11.0516 9.25051 10.6374 9.66627C10.2232 10.082 9.66168 10.3159 9.07593 10.3167Z" fill="#BDCAF2"/>
</svg>
