<svg width="18" height="19" viewBox="0 0 18 19" fill="none" xmlns="http://www.w3.org/2000/svg">
<path opacity="0.4" d="M12.1425 2H5.8575C3.1275 2 1.5 3.6275 1.5 6.3575V12.635C1.5 15.3725 3.1275 17 5.8575 17H12.135C14.865 17 16.4925 15.3725 16.4925 12.6425V6.3575C16.5 3.6275 14.8725 2 12.1425 2Z" fill="#6284E8"/>
<path d="M7.93508 12.185C7.78508 12.185 7.64258 12.125 7.53758 12.02L5.41508 9.89745C5.19758 9.67995 5.19758 9.31995 5.41508 9.10245C5.63258 8.88495 5.99258 8.88495 6.21008 9.10245L7.93508 10.8275L11.7901 6.97245C12.0076 6.75495 12.3676 6.75495 12.5851 6.97245C12.8026 7.18995 12.8026 7.54995 12.5851 7.76745L8.33258 12.02C8.22758 12.125 8.08508 12.185 7.93508 12.185Z" fill="#4171FF"/>
</svg>
