<svg width="19" height="19" viewBox="0 0 19 19" fill="none" xmlns="http://www.w3.org/2000/svg">
<path d="M6.34925 3.65747H5.52591C4.26716 3.65747 3.7605 4.13247 3.7605 5.3358V14.7408H8.11466V5.3358C8.10675 4.13247 7.60008 3.65747 6.34925 3.65747Z" fill="#4171FF"/>
<path opacity="0.4" d="M13.0783 7.61572H12.2549C10.9962 7.61572 10.4895 8.09864 10.4895 9.29406V14.7407H14.8437V9.29406C14.8437 8.09864 14.3291 7.61572 13.0783 7.61572Z" fill="#4171FF"/>
<path d="M2.177 14.155H16.8228C17.1474 14.155 17.4166 14.4242 17.4166 14.7488C17.4166 15.0734 17.1474 15.3425 16.8228 15.3425H2.177C1.85242 15.3425 1.58325 15.0734 1.58325 14.7409C1.58325 14.4084 1.85242 14.155 2.177 14.155Z" fill="#4171FF"/>
</svg>
