<svg width="18" height="19" viewBox="0 0 18 19" fill="none" xmlns="http://www.w3.org/2000/svg">
<path d="M6 4.8125C5.6925 4.8125 5.4375 4.5575 5.4375 4.25V2C5.4375 1.6925 5.6925 1.4375 6 1.4375C6.3075 1.4375 6.5625 1.6925 6.5625 2V4.25C6.5625 4.5575 6.3075 4.8125 6 4.8125Z" fill="#4171FF"/>
<path d="M12 4.8125C11.6925 4.8125 11.4375 4.5575 11.4375 4.25V2C11.4375 1.6925 11.6925 1.4375 12 1.4375C12.3075 1.4375 12.5625 1.6925 12.5625 2V4.25C12.5625 4.5575 12.3075 4.8125 12 4.8125Z" fill="#4171FF"/>
<path opacity="0.4" d="M15.75 6.875V13.25C15.75 15.5 14.625 17 12 17H6C3.375 17 2.25 15.5 2.25 13.25V6.875C2.25 4.625 3.375 3.125 6 3.125H12C14.625 3.125 15.75 4.625 15.75 6.875Z" fill="#6284E8"/>
<path d="M12 9.3125H6C5.6925 9.3125 5.4375 9.0575 5.4375 8.75C5.4375 8.4425 5.6925 8.1875 6 8.1875H12C12.3075 8.1875 12.5625 8.4425 12.5625 8.75C12.5625 9.0575 12.3075 9.3125 12 9.3125Z" fill="#4171FF"/>
<path d="M9 13.0625H6C5.6925 13.0625 5.4375 12.8075 5.4375 12.5C5.4375 12.1925 5.6925 11.9375 6 11.9375H9C9.3075 11.9375 9.5625 12.1925 9.5625 12.5C9.5625 12.8075 9.3075 13.0625 9 13.0625Z" fill="#4171FF"/>
</svg>
