<svg width="30" height="28" viewBox="0 0 30 28" fill="none" xmlns="http://www.w3.org/2000/svg">
<path d="M13.2691 26.5382C20.5974 26.5382 26.5382 20.5974 26.5382 13.2691C26.5382 5.94078 20.5974 0 13.2691 0C5.94078 0 0 5.94078 0 13.2691C0 20.5974 5.94078 26.5382 13.2691 26.5382Z" fill="#D9E3FF"/>
<path d="M13.269 20.3232C10.0331 20.3232 7.40063 18.3543 7.40063 15.9316C7.40063 15.5763 7.68742 15.2896 8.04269 15.2896C8.39796 15.2896 8.68474 15.5763 8.68474 15.9316C8.68474 17.6437 10.7393 19.0391 13.269 19.0391C15.7987 19.0391 17.8533 17.6437 17.8533 15.9316C17.8533 15.5763 18.1401 15.2896 18.4953 15.2896C18.8506 15.2896 19.1374 15.5763 19.1374 15.9316C19.1374 18.3543 16.505 20.3232 13.269 20.3232Z" fill="#4171FF"/>
<path d="M18.2385 12.5586C19.0068 12.5586 19.6296 11.9358 19.6296 11.1675C19.6296 10.3992 19.0068 9.77637 18.2385 9.77637C17.4702 9.77637 16.8474 10.3992 16.8474 11.1675C16.8474 11.9358 17.4702 12.5586 18.2385 12.5586Z" fill="#4171FF"/>
<path d="M8.29956 12.5586C9.06786 12.5586 9.69068 11.9358 9.69068 11.1675C9.69068 10.3992 9.06786 9.77637 8.29956 9.77637C7.53127 9.77637 6.90845 10.3992 6.90845 11.1675C6.90845 11.9358 7.53127 12.5586 8.29956 12.5586Z" fill="#4171FF"/>
<path d="M28.9431 9.50485L25.7366 8.14178C25.3319 7.96977 24.8645 8.15836 24.6924 8.56302L18.9421 22.0903C18.7701 22.4949 18.9587 22.9624 19.3633 23.1344L22.5699 24.4975C22.9745 24.6695 23.442 24.4809 23.614 24.0763L29.3643 10.549C29.5364 10.1444 29.3478 9.67687 28.9431 9.50485Z" fill="#A0B8FF"/>
<path d="M25.856 7.29763L29.4682 8.83318C29.7597 8.95709 29.8996 9.29559 29.774 9.59103L28.9082 11.6276L24.2363 9.64161L25.1021 7.60504C25.226 7.31354 25.5645 7.17372 25.8599 7.29931L25.856 7.29763Z" fill="#4171FF"/>
<path d="M20.2116 26.8207L23.4433 24.3852C23.6145 24.2568 23.5802 23.9914 23.3833 23.9058L19.2614 22.1551C19.0645 22.0695 18.8504 22.2321 18.8761 22.4462L19.3684 26.4611C19.4197 26.8635 19.8863 27.0647 20.2116 26.8207Z" fill="#D9E3FF"/>
<path d="M19.8565 27.0734L21.1021 26.136L19.2444 25.3484L19.4327 26.8979C19.4584 27.0991 19.6938 27.1975 19.8565 27.0777V27.0734Z" fill="#4171FF"/>
<path d="M10.2214 8.37249H6.37765C6.02238 8.37249 5.7356 8.0857 5.7356 7.73043C5.7356 7.37516 6.02238 7.08838 6.37765 7.08838H10.2214C10.5767 7.08838 10.8635 7.37516 10.8635 7.73043C10.8635 8.0857 10.5767 8.37249 10.2214 8.37249Z" fill="#A0B8FF"/>
<path d="M20.1604 8.37249H16.3166C15.9613 8.37249 15.6746 8.0857 15.6746 7.73043C15.6746 7.37516 15.9613 7.08838 16.3166 7.08838H20.1604C20.5157 7.08838 20.8024 7.37516 20.8024 7.73043C20.8024 8.0857 20.5157 8.37249 20.1604 8.37249Z" fill="#A0B8FF"/>
</svg>
