<svg width="30" height="34" viewBox="0 0 30 34" fill="none" xmlns="http://www.w3.org/2000/svg">
<path d="M14.5136 33.463C22.5292 33.463 29.0272 26.965 29.0272 18.9494C29.0272 10.9337 22.5292 4.43579 14.5136 4.43579C6.49795 4.43579 0 10.9337 0 18.9494C0 26.965 6.49795 33.463 14.5136 33.463Z" fill="#D9E3FF"/>
<path d="M4.54621 22.8913C5.91145 22.8913 7.0182 22.0088 7.0182 20.9203C7.0182 19.8317 5.91145 18.9492 4.54621 18.9492C3.18097 18.9492 2.07422 19.8317 2.07422 20.9203C2.07422 22.0088 3.18097 22.8913 4.54621 22.8913Z" fill="#A0B8FF"/>
<path d="M24.4813 22.8913C25.8465 22.8913 26.9533 22.0088 26.9533 20.9203C26.9533 19.8317 25.8465 18.9492 24.4813 18.9492C23.116 18.9492 22.0093 19.8317 22.0093 20.9203C22.0093 22.0088 23.116 22.8913 24.4813 22.8913Z" fill="#A0B8FF"/>
<path d="M14.5137 27.1379C10.9743 27.1379 8.09497 24.9842 8.09497 22.3344C8.09497 21.9458 8.40865 21.6321 8.79724 21.6321C9.18583 21.6321 9.49951 21.9458 9.49951 22.3344C9.49951 24.2071 11.7468 25.7333 14.5137 25.7333C17.2807 25.7333 19.5279 24.2071 19.5279 22.3344C19.5279 21.9458 19.8416 21.6321 20.2302 21.6321C20.6188 21.6321 20.9325 21.9458 20.9325 22.3344C20.9325 24.9842 18.0532 27.1379 14.5137 27.1379Z" fill="#4171FF"/>
<path d="M19.9491 18.1721C20.7894 18.1721 21.4707 17.4908 21.4707 16.6505C21.4707 15.8101 20.7894 15.1289 19.9491 15.1289C19.1087 15.1289 18.4275 15.8101 18.4275 16.6505C18.4275 17.4908 19.1087 18.1721 19.9491 18.1721Z" fill="#4171FF"/>
<path d="M9.07798 18.1721C9.91833 18.1721 10.5996 17.4908 10.5996 16.6505C10.5996 15.8101 9.91833 15.1289 9.07798 15.1289C8.23763 15.1289 7.5564 15.8101 7.5564 16.6505C7.5564 17.4908 8.23763 18.1721 9.07798 18.1721Z" fill="#4171FF"/>
<path d="M14.0997 4.17537L26.3979 7.95408C26.3979 7.95408 26.4281 7.98298 26.4226 8.00089L25.2772 11.7288C25.1273 12.2166 24.6125 12.4895 24.1247 12.3396L13.5092 9.07789C13.0214 8.928 12.7486 8.41317 12.8985 7.92536L14.0439 4.19742C14.0439 4.19742 14.0728 4.16712 14.0907 4.17262L14.0997 4.17537Z" fill="#A0B8FF"/>
<path d="M17.8706 12.9191L13.2309 8.9349C12.964 8.70549 13.0904 8.27009 13.4416 8.21859L19.5654 7.34777C19.7433 7.32436 19.9259 7.37586 20.0616 7.50227L24.912 11.9078C25.0665 12.0483 24.9822 12.3058 24.7762 12.3292L18.3387 13.0596C18.1702 13.0783 18.0016 13.0268 17.8706 12.9144V12.9191Z" fill="#A0B8FF"/>
<path d="M18.4932 8.93496L10.5809 2.14167C10.3375 1.93567 10.4545 1.53771 10.7682 1.49558L21.2039 0.0114477C21.5223 -0.0353703 21.8406 0.0629473 22.0794 0.27831L29.8793 7.36656C30.1134 7.58192 29.987 7.97051 29.6733 8.00796L19.3125 9.18778C19.0175 9.22055 18.7179 9.13159 18.4932 8.93496Z" fill="#4171FF"/>
</svg>
