<svg width="14" height="14" viewBox="0 0 14 14" fill="none" xmlns="http://www.w3.org/2000/svg">
<g id="Group 40">
<circle id="Ellipse 31" cx="7" cy="7" r="6.5" stroke="#B5B5B5" stroke-linecap="round"/>
<g id="Group 72">
<g id="Ellipse 71">
<mask id="path-2-inside-1_6267_3675" fill="white">
<path d="M7.5 10.5C7.5 10.7761 7.27614 11 7 11C6.72386 11 6.5 10.7761 6.5 10.5C6.5 10.2239 6.72386 10 7 10C7.27614 10 7.5 10.2239 7.5 10.5Z"/>
</mask>
<path d="M7.5 10.5C7.5 10.7761 7.27614 11 7 11C6.72386 11 6.5 10.7761 6.5 10.5C6.5 10.2239 6.72386 10 7 10C7.27614 10 7.5 10.2239 7.5 10.5Z" fill="#B5B5B5"/>
<path d="M6.5 10.5C6.5 10.2239 6.72386 10 7 10V12C7.82843 12 8.5 11.3284 8.5 10.5H6.5ZM7 10C7.27614 10 7.5 10.2239 7.5 10.5H5.5C5.5 11.3284 6.17157 12 7 12V10ZM7.5 10.5C7.5 10.7761 7.27614 11 7 11V9C6.17157 9 5.5 9.67157 5.5 10.5H7.5ZM7 11C6.72386 11 6.5 10.7761 6.5 10.5H8.5C8.5 9.67157 7.82843 9 7 9V11Z" fill="#B5B5B5" mask="url(#path-2-inside-1_6267_3675)"/>
</g>
<path id="Vector 20" d="M7 8.50001V8C7 7.1273 8.79111 6.50001 8.5 5C8.20889 3.5 6 3.5 5.5 5.00001" stroke="#B5B5B5" stroke-linecap="round"/>
</g>
</g>
</svg>
