<svg width="62" height="62" viewBox="0 0 62 62" fill="none" xmlns="http://www.w3.org/2000/svg">
<g id="042.loading">
<path id="Vector" d="M31.6712 5.16699H30.3795C28.9527 5.16699 27.7961 6.32359 27.7961 7.75033V15.5003C27.7961 16.9271 28.9527 18.0837 30.3795 18.0837H31.6712C33.0979 18.0837 34.2545 16.9271 34.2545 15.5003V7.75033C34.2545 6.32359 33.0979 5.16699 31.6712 5.16699Z" fill="#5096FF"/>
<path id="Vector_2" d="M13.2095 12.2678L12.2962 13.1811C11.2873 14.19 11.2873 15.8257 12.2962 16.8345L17.7763 22.3146C18.7851 23.3234 20.4208 23.3234 21.4297 22.3146L22.343 21.4012C23.3519 20.3924 23.3519 18.7567 22.343 17.7479L16.8629 12.2678C15.8541 11.2589 14.2184 11.2589 13.2095 12.2678Z" fill="#DBECFF"/>
<path id="Vector_3" d="M5.16675 30.3545V31.6462C5.16675 33.0729 6.32335 34.2295 7.75009 34.2295H15.5001C16.9268 34.2295 18.0834 33.0729 18.0834 31.6462V30.3545C18.0834 28.9278 16.9268 27.7712 15.5001 27.7712H7.75009C6.32335 27.7712 5.16675 28.9278 5.16675 30.3545Z" fill="#DBECFF"/>
<path id="Vector_4" d="M12.2932 48.8029L13.2065 49.7163C14.2154 50.7251 15.851 50.7251 16.8599 49.7163L22.34 44.2362C23.3488 43.2273 23.3488 41.5917 22.34 40.5828L21.4266 39.6695C20.4178 38.6606 18.7821 38.6606 17.7732 39.6695L12.2932 45.1495C11.2843 46.1584 11.2843 47.7941 12.2932 48.8029Z" fill="#88BFFF"/>
<path id="Vector_5" d="M30.3264 56.833H31.6181C33.0448 56.833 34.2014 55.6764 34.2014 54.2497V46.4997C34.2014 45.0729 33.0448 43.9163 31.6181 43.9163H30.3264C28.8997 43.9163 27.7431 45.0729 27.7431 46.4997V54.2497C27.7431 55.6764 28.8997 56.833 30.3264 56.833Z" fill="#88BFFF"/>
<path id="Vector_6" d="M48.8207 49.74L49.7341 48.8267C50.743 47.8178 50.743 46.1822 49.7341 45.1733L44.254 39.6932C43.2451 38.6844 41.6095 38.6844 40.6006 39.6932L39.6873 40.6066C38.6784 41.6154 38.6784 43.2511 39.6873 44.26L45.1674 49.74C46.1762 50.7489 47.8119 50.7489 48.8207 49.74Z" fill="#88BFFF"/>
<path id="Vector_7" d="M56.8335 31.6709V30.3792C56.8335 28.9525 55.6769 27.7959 54.2502 27.7959H46.5001C45.0734 27.7959 43.9168 28.9525 43.9168 30.3792V31.6709C43.9168 33.0976 45.0734 34.2542 46.5001 34.2542H54.2502C55.6769 34.2542 56.8335 33.0976 56.8335 31.6709Z" fill="#5096FF"/>
<path id="Vector_8" d="M49.7447 13.2098L48.8313 12.2964C47.8225 11.2876 46.1868 11.2876 45.1779 12.2964L39.6979 17.7765C38.689 18.7854 38.689 20.421 39.6979 21.4299L40.6112 22.3432C41.6201 23.3521 43.2557 23.3521 44.2646 22.3432L49.7447 16.8632C50.7535 15.8543 50.7535 14.2186 49.7447 13.2098Z" fill="#5096FF"/>
</g>
</svg>
