<svg width="19" height="19" viewBox="0 0 19 19" fill="none" xmlns="http://www.w3.org/2000/svg">
<path d="M9.50001 18.0103C5.38334 18.0103 2.04251 14.6616 2.04251 10.5528C2.04251 6.44407 5.38334 3.0874 9.50001 3.0874C10.3471 3.0874 11.1704 3.20615 11.9621 3.45157C12.2788 3.54657 12.4529 3.87907 12.3579 4.19574C12.2629 4.5124 11.9304 4.68657 11.6138 4.59157C10.9408 4.38574 10.2283 4.2749 9.50001 4.2749C6.04043 4.2749 3.23001 7.08532 3.23001 10.5449C3.23001 14.0045 6.04043 16.8149 9.50001 16.8149C12.9596 16.8149 15.77 14.0045 15.77 10.5449C15.77 9.29407 15.4058 8.09074 14.7171 7.06157C14.535 6.7924 14.6063 6.42032 14.8833 6.23824C15.1525 6.05615 15.5246 6.1274 15.7067 6.40449C16.53 7.63157 16.9654 9.06449 16.9654 10.5528C16.9575 14.6616 13.6167 18.0103 9.50001 18.0103Z" fill="#909090"/>
<path d="M12.7696 4.80542C12.6033 4.80542 12.4371 4.73417 12.3183 4.59959L10.0304 1.97125C9.81668 1.72584 9.84043 1.34584 10.0858 1.13209C10.3313 0.918336 10.7113 0.942086 10.925 1.1875L13.2129 3.81584C13.4267 4.06125 13.4029 4.44125 13.1575 4.655C13.0546 4.75792 12.9121 4.80542 12.7696 4.80542Z" fill="#909090"/>
<path d="M10.1017 6.75312C9.91958 6.75312 9.7375 6.66603 9.61875 6.5077C9.42875 6.24645 9.48416 5.87437 9.74541 5.67645L12.4133 3.72895C12.6746 3.53103 13.0467 3.59437 13.2446 3.85562C13.4425 4.11687 13.3792 4.48895 13.1179 4.68687L10.45 6.64228C10.3471 6.72145 10.2283 6.75312 10.1017 6.75312Z" fill="#909090"/>
</svg>
