<svg width="30" height="30" viewBox="0 0 30 30" fill="none" xmlns="http://www.w3.org/2000/svg">
<path d="M15 30C23.2843 30 30 23.2843 30 15C30 6.71573 23.2843 0 15 0C6.71573 0 0 6.71573 0 15C0 23.2843 6.71573 30 15 30Z" fill="#D9E3FF"/>
<path d="M15.0001 23.4628C11.342 23.4628 8.36621 21.237 8.36621 18.4983C8.36621 18.0967 8.6904 17.7725 9.09202 17.7725C9.49363 17.7725 9.81782 18.0967 9.81782 18.4983C9.81782 20.4338 12.1404 22.0112 15.0001 22.0112C17.8598 22.0112 20.1823 20.4338 20.1823 18.4983C20.1823 18.0967 20.5065 17.7725 20.9081 17.7725C21.3098 17.7725 21.6339 18.0967 21.6339 18.4983C21.6339 21.237 18.6581 23.4628 15.0001 23.4628Z" fill="#4171FF"/>
<path d="M27.9583 9.91442L15.6873 10.4225H14.3083L2.03731 9.91442C1.81473 9.90474 1.61634 10.0935 1.62118 10.3354C1.70828 13.7031 4.43731 16.4709 7.90666 16.616C10.9938 16.7418 13.6647 14.7435 14.4728 11.9418H15.5276C16.3357 14.7435 19.0067 16.7418 22.0938 16.616C25.5631 16.4709 28.2873 13.7031 28.3792 10.3354C28.3841 10.0983 28.1905 9.90474 27.9631 9.91442H27.9583Z" fill="#1D49C7"/>
</svg>
