<svg width="21" height="21" viewBox="0 0 21 21" fill="none" xmlns="http://www.w3.org/2000/svg">
<g clip-path="url(#clip0_1093_15726)">
<path d="M12.4981 10.815L12.4978 10.8157C12.4889 10.8398 12.4678 10.8791 12.4153 10.9316L7.9213 15.4256C7.92126 15.4256 7.92122 15.4257 7.92119 15.4257C7.87584 15.471 7.82514 15.4963 7.73978 15.4998L7.73976 15.4998C7.6859 15.502 7.63877 15.49 7.57444 15.4258C7.52411 15.3753 7.50364 15.3271 7.50364 15.2524C7.50364 15.1775 7.52417 15.1292 7.57464 15.0787L7.5751 15.0783L11.6329 11.0053L11.9844 10.6524L11.6329 10.2995L7.5751 6.22647L7.57444 6.22581C7.52902 6.18039 7.5037 6.12975 7.50022 6.0445C7.49802 5.99047 7.51005 5.9433 7.57444 5.87891C7.62473 5.82862 7.67281 5.80811 7.74764 5.80811C7.82275 5.80811 7.87088 5.82871 7.92108 5.87891L12.4153 10.3732C12.4678 10.4257 12.4889 10.465 12.4978 10.489L12.4981 10.4897C12.5142 10.5332 12.5246 10.586 12.5246 10.6524C12.5246 10.7188 12.5142 10.7715 12.4981 10.815Z" fill="#4D4D4D" stroke="black"/>
</g>
<defs>
<clipPath id="clip0_1093_15726">
<rect width="21" height="21" fill="white"/>
</clipPath>
</defs>
</svg>
