<svg width="36" height="36" viewBox="0 0 36 36" fill="none" xmlns="http://www.w3.org/2000/svg">
<rect width="36" height="36" rx="18" fill="#F3F3F3"/>
<path d="M25.0958 11.1987L22.33 8.88851C21.9827 8.59843 21.4719 8.65202 21.189 9.00819L11.6987 20.9591C11.4159 21.3153 11.4681 21.8391 11.8154 22.1292L14.5812 24.4394C14.9285 24.7295 15.4393 24.6759 15.7222 24.3197L25.2125 12.3688C25.4953 12.0127 25.4431 11.4888 25.0958 11.1987Z" fill="#A0B8FF"/>
<path d="M22.6873 8.07521L25.797 10.6726C26.05 10.884 26.0879 11.2633 25.8818 11.5228L24.4535 13.3215L20.43 9.96085L21.8584 8.16217C22.0644 7.90269 22.4343 7.86389 22.6873 8.07521Z" fill="#4171FF"/>
<path d="M11.5938 26.0921L15.4608 24.5827C15.6647 24.5028 15.7094 24.2268 15.539 24.0849L11.9885 21.1198C11.8181 20.978 11.564 21.0781 11.5276 21.2987L10.8682 25.4854C10.8025 25.9052 11.2062 26.2417 11.5938 26.0921Z" fill="#D9E3FF"/>
<path d="M11.1741 26.2446L12.6652 25.6633L11.0645 24.3257L10.8103 25.9392C10.7769 26.1506 10.9793 26.3173 11.1751 26.2415L11.1741 26.2446Z" fill="#4171FF"/>
<path d="M26.5247 28.5001H9.47518C9.21225 28.5001 9 28.2824 9 28.0127C9 27.7431 9.21225 27.5254 9.47518 27.5254H26.5247C26.7877 27.5254 26.9999 27.7431 26.9999 28.0127C26.9999 28.2824 26.7877 28.5001 26.5247 28.5001Z" fill="#A0B8FF"/>
</svg>
