<svg width="30" height="30" viewBox="0 0 30 30" fill="none" xmlns="http://www.w3.org/2000/svg">
<path d="M15 30C23.2843 30 30 23.2843 30 15C30 6.71573 23.2843 0 15 0C6.71573 0 0 6.71573 0 15C0 23.2843 6.71573 30 15 30Z" fill="#D9E3FF"/>
<path d="M4.69815 19.0693C6.10915 19.0693 7.253 18.1573 7.253 17.0322C7.253 15.9072 6.10915 14.9951 4.69815 14.9951C3.28715 14.9951 2.14331 15.9072 2.14331 17.0322C2.14331 18.1573 3.28715 19.0693 4.69815 19.0693Z" fill="#A0B8FF"/>
<path d="M25.3014 19.0693C26.7124 19.0693 27.8563 18.1573 27.8563 17.0322C27.8563 15.9072 26.7124 14.9951 25.3014 14.9951C23.8904 14.9951 22.7466 15.9072 22.7466 17.0322C22.7466 18.1573 23.8904 19.0693 25.3014 19.0693Z" fill="#A0B8FF"/>
<path d="M20.6177 14.192C21.4863 14.192 22.1903 13.488 22.1903 12.6195C22.1903 11.7509 21.4863 11.0469 20.6177 11.0469C19.7492 11.0469 19.0452 11.7509 19.0452 12.6195C19.0452 13.488 19.7492 14.192 20.6177 14.192Z" fill="#4171FF"/>
<path d="M9.3824 14.192C10.2509 14.192 10.955 13.488 10.955 12.6195C10.955 11.7509 10.2509 11.0469 9.3824 11.0469C8.51388 11.0469 7.80981 11.7509 7.80981 12.6195C7.80981 13.488 8.51388 14.192 9.3824 14.192Z" fill="#4171FF"/>
<path d="M18.1354 19.4516H11.8645C11.4629 19.4516 11.1387 19.1274 11.1387 18.7258C11.1387 18.3242 11.4629 18 11.8645 18H18.1354C18.5371 18 18.8613 18.3242 18.8613 18.7258C18.8613 19.1274 18.5371 19.4516 18.1354 19.4516Z" fill="#4171FF"/>
<path d="M12.1403 11.1774C11.8403 11.1774 11.5645 10.9935 11.458 10.6935C11.4241 10.6016 10.7322 8.92741 7.57738 9.13548C7.17577 9.16451 6.83222 8.85967 6.80318 8.4629C6.77415 8.06128 7.07899 7.71773 7.47576 7.6887C11.8161 7.3887 12.7838 10.0984 12.8225 10.2145C12.9532 10.5919 12.75 11.0081 12.3677 11.1339C12.2903 11.1581 12.2129 11.1726 12.1354 11.1726L12.1403 11.1774Z" fill="#4171FF"/>
<path d="M17.8548 11.1678C17.7725 11.1678 17.6903 11.1533 17.6128 11.1242C17.2403 10.9888 17.0419 10.5871 17.1677 10.2146C17.2064 10.0984 18.1741 7.39359 22.5145 7.68876C22.9161 7.71779 23.2161 8.06134 23.187 8.46295C23.158 8.86456 22.8144 9.16456 22.4128 9.13553C19.2435 8.92263 18.5612 10.621 18.5322 10.6936C18.4209 10.9839 18.1451 11.1678 17.8499 11.1678H17.8548Z" fill="#4171FF"/>
</svg>
