<svg width="30" height="30" viewBox="0 0 30 30" fill="none" xmlns="http://www.w3.org/2000/svg">
<path d="M14.8847 29.7695C23.1053 29.7695 29.7695 23.1053 29.7695 14.8847C29.7695 6.66412 23.1053 0 14.8847 0C6.66412 0 0 6.66412 0 14.8847C0 23.1053 6.66412 29.7695 14.8847 29.7695Z" fill="#D9E3FF"/>
<path d="M20.3199 14.8847C21.1049 14.8847 21.7412 14.2484 21.7412 13.4635C21.7412 12.6786 21.1049 12.0422 20.3199 12.0422C19.535 12.0422 18.8987 12.6786 18.8987 13.4635C18.8987 14.2484 19.535 14.8847 20.3199 14.8847Z" fill="#4171FF"/>
<path d="M9.44934 14.8847C10.2343 14.8847 10.8706 14.2484 10.8706 13.4635C10.8706 12.6786 10.2343 12.0422 9.44934 12.0422C8.6644 12.0422 8.02808 12.6786 8.02808 13.4635C8.02808 14.2484 8.6644 14.8847 9.44934 14.8847Z" fill="#4171FF"/>
<path d="M11.6052 11.2692C11.3699 11.2692 11.1395 11.154 11.005 10.9427C10.9474 10.8611 9.88628 9.40626 6.89973 10.3522C6.52041 10.4722 6.11708 10.2609 5.99704 9.88161C5.877 9.50229 6.08826 9.09896 6.46758 8.97892C10.5777 7.67771 12.1526 10.0593 12.2198 10.1601C12.4359 10.4962 12.3351 10.9427 11.9989 11.154C11.8789 11.2308 11.7445 11.2692 11.61 11.2692H11.6052Z" fill="#4171FF"/>
<path d="M18.5144 9.16127C18.3896 9.16127 18.2648 9.12766 18.1495 9.06044C17.8134 8.85877 17.6982 8.42663 17.895 8.08572C17.9575 7.98009 19.4267 5.53611 23.5896 6.65967C23.9738 6.76531 24.1994 7.15903 24.0986 7.54315C23.993 7.92727 23.5992 8.15295 23.2151 8.05211C20.171 7.23105 19.177 8.75314 19.1386 8.82036C18.9994 9.04123 18.7641 9.16127 18.5192 9.16127H18.5144Z" fill="#4171FF"/>
<path d="M14.3564 23.081C13.9195 23.081 13.4681 23.0377 13.012 22.9417C11.7156 22.6728 10.568 22.0534 9.77578 21.194C8.9211 20.2673 8.5754 19.1773 8.79147 18.1162C8.87309 17.7273 9.25241 17.4776 9.64133 17.5544C10.0303 17.636 10.2799 18.0154 10.2031 18.4043C10.0831 18.9949 10.3039 19.6383 10.8369 20.2145C11.4275 20.8531 12.3062 21.3236 13.3049 21.5301C15.2543 21.9334 17.1269 21.1844 17.391 19.8927C17.4726 19.5038 17.8567 19.2541 18.2409 19.331C18.6298 19.4126 18.8795 19.7919 18.8026 20.1808C18.4425 21.9238 16.5699 23.0762 14.3564 23.0762V23.081Z" fill="#4171FF"/>
<path d="M29.2799 28.3146C28.8813 28.3146 28.5596 27.9929 28.5596 27.5944V15.5425C28.5596 14.9471 28.0747 14.4622 27.4793 14.4622H25.6355C25.237 14.4622 24.9153 14.1405 24.9153 13.742C24.9153 13.3434 25.237 13.0217 25.6355 13.0217H27.4793C28.8717 13.0217 30.0001 14.1549 30.0001 15.5425V27.5944C30.0001 27.9929 29.6784 28.3146 29.2799 28.3146Z" fill="#A0B8FF"/>
<path d="M20.7955 19.3022C17.7274 19.3022 15.2354 16.8054 15.2354 13.7421C15.2354 10.6787 17.7274 8.18188 20.7955 8.18188C23.8637 8.18188 26.3557 10.6739 26.3557 13.7421C26.3557 16.8102 23.8589 19.3022 20.7955 19.3022ZM20.7955 9.62234C18.5244 9.62234 16.6758 11.4709 16.6758 13.7421C16.6758 16.0132 18.5244 17.8618 20.7955 17.8618C23.0666 17.8618 24.9152 16.0132 24.9152 13.7421C24.9152 11.4709 23.0666 9.62234 20.7955 9.62234Z" fill="#A0B8FF"/>
</svg>
