<svg width="19" height="18" viewBox="0 0 19 18" fill="none" xmlns="http://www.w3.org/2000/svg">
<path opacity="0.4" d="M7.25 1.5C5.285 1.5 3.6875 3.0975 3.6875 5.0625C3.6875 6.99 5.195 8.55 7.16 8.6175C7.22 8.61 7.28 8.61 7.325 8.6175C7.34 8.6175 7.3475 8.6175 7.3625 8.6175C7.37 8.6175 7.37 8.6175 7.3775 8.6175C9.2975 8.55 10.805 6.99 10.8125 5.0625C10.8125 3.0975 9.215 1.5 7.25 1.5Z" fill="#6284E8"/>
<path d="M11.0602 10.6127C8.96771 9.21766 5.55521 9.21766 3.44771 10.6127C2.49521 11.2502 1.97021 12.1127 1.97021 13.0352C1.97021 13.9577 2.49521 14.8127 3.44021 15.4427C4.49021 16.1477 5.87021 16.5002 7.25021 16.5002C8.63021 16.5002 10.0102 16.1477 11.0602 15.4427C12.0052 14.8052 12.5302 13.9502 12.5302 13.0202C12.5227 12.0977 12.0052 11.2427 11.0602 10.6127Z" fill="#4171FF"/>
<path opacity="0.4" d="M15.4925 5.50507C15.6125 6.96008 14.5775 8.23507 13.145 8.40758C13.1375 8.40758 13.1375 8.40758 13.13 8.40758H13.1075C13.0625 8.40758 13.0175 8.40757 12.98 8.42257C12.2525 8.46007 11.585 8.22757 11.0825 7.80008C11.855 7.11007 12.2975 6.07507 12.2075 4.95007C12.155 4.34257 11.945 3.78757 11.63 3.31507C11.915 3.17257 12.245 3.08257 12.5825 3.05257C14.0525 2.92507 15.365 4.02007 15.4925 5.50507Z" fill="#6284E8"/>
<path d="M16.9927 12.4423C16.9327 13.1698 16.4677 13.7998 15.6877 14.2273C14.9377 14.6398 13.9927 14.8348 13.0552 14.8123C13.5952 14.3248 13.9102 13.7173 13.9702 13.0723C14.0452 12.1423 13.6027 11.2498 12.7177 10.5373C12.2152 10.1398 11.6302 9.82481 10.9927 9.59231C12.6502 9.11231 14.7352 9.43481 16.0177 10.4698C16.7077 11.0248 17.0602 11.7223 16.9927 12.4423Z" fill="#4171FF"/>
</svg>
