<svg width="79" height="24" viewBox="0 0 79 24" fill="none" xmlns="http://www.w3.org/2000/svg">
<g id="text logo" clip-path="url(#clip0_5597_3203)">
<path id="Vector" d="M2.86988 17.1639C2.01704 16.7786 1.34246 16.2498 0.846132 15.5879C0.349806 14.926 0.0771765 14.1906 0.0317383 13.3851H3.36621C3.42912 13.8894 3.67728 14.3096 4.1107 14.6423C4.54411 14.975 5.08587 15.1396 5.73249 15.1396C6.37911 15.1396 6.85447 15.0136 7.21098 14.7614C7.5675 14.5092 7.74226 14.1836 7.74226 13.7913C7.74226 13.3641 7.52556 13.0454 7.09214 12.8317C6.65873 12.6181 5.97017 12.387 5.02296 12.1313C4.04429 11.8932 3.24387 11.648 2.62172 11.3959C1.99956 11.1437 1.4613 10.755 1.0139 10.2332C0.563016 9.71135 0.33932 9.00743 0.33932 8.12489C0.33932 7.39996 0.549035 6.73455 0.96497 6.13569C1.38091 5.53683 1.98209 5.06054 2.76153 4.71383C3.54097 4.36712 4.46022 4.19202 5.51579 4.19202C7.07816 4.19202 8.32247 4.58425 9.25221 5.36523C10.1819 6.1462 10.6957 7.20033 10.7901 8.52764H7.61993C7.57099 8.00582 7.35429 7.59257 6.96981 7.28438C6.58184 6.9762 6.06804 6.82211 5.42141 6.82211C4.82373 6.82211 4.36235 6.93417 4.0373 7.15481C3.71224 7.37544 3.55146 7.68363 3.55146 8.07937C3.55146 8.52063 3.77166 8.85684 4.21206 9.08798C4.65246 9.31561 5.33753 9.55025 6.27076 9.7884C7.21797 10.0265 7.99741 10.2717 8.61258 10.5238C9.22774 10.776 9.75902 11.1682 10.2099 11.6971C10.6608 12.2259 10.8915 12.9263 10.909 13.7948C10.909 14.5548 10.6992 15.2342 10.2833 15.833C9.86388 16.4319 9.26619 16.9047 8.48675 17.2444C7.70731 17.5841 6.79505 17.7557 5.75346 17.7557C4.71188 17.7557 3.71923 17.5631 2.86988 17.1744V17.1639Z" fill="black"/>
<path id="Vector_2" d="M16.0678 7.12687V13.4762C16.0678 13.9175 16.1727 14.2397 16.3859 14.4358C16.5991 14.6319 16.9556 14.7335 17.4624 14.7335H19.0003V17.5282H16.9172C14.128 17.5282 12.7299 16.1693 12.7299 13.4517V7.12337H11.1675V4.39872H12.7299V1.15576H16.0643V4.40222H18.9968V7.12687H16.0643H16.0678Z" fill="black"/>
<path id="Vector_3" d="M32.3381 4.40216V17.5316H29.0036V15.8716C28.5772 16.4389 28.0214 16.8872 27.3364 17.2094C26.6513 17.5316 25.9068 17.6962 25.1029 17.6962C24.0788 17.6962 23.17 17.4791 22.3836 17.0448C21.5937 16.6105 20.975 15.9696 20.5276 15.1256C20.0767 14.2816 19.853 13.273 19.853 12.1033V4.40216H23.163V11.6305C23.163 12.6742 23.4252 13.4761 23.9425 14.0365C24.4598 14.5968 25.1728 14.877 26.0711 14.877C26.9694 14.877 27.7034 14.5968 28.2242 14.0365C28.7449 13.4761 29.0036 12.6742 29.0036 11.6305V4.40216H32.3381Z" fill="black"/>
<path id="Vector_4" d="M49.5873 4.40216V17.5316H46.2773V4.40216H49.5873Z" fill="black"/>
<path id="Vector_5" d="M62.0058 5.69441C62.967 6.682 63.4494 8.06184 63.4494 9.83041V17.5316H60.1394V10.2787C60.1394 9.23505 59.8807 8.43306 59.3599 7.87272C58.8392 7.31239 58.1296 7.03222 57.2313 7.03222C56.3331 7.03222 55.5956 7.31239 55.0678 7.87272C54.54 8.43306 54.2744 9.23505 54.2744 10.2787V17.5316H50.9644V4.40213H54.2744V6.03762C54.7148 5.47027 55.281 5.022 55.9661 4.69981C56.6511 4.37761 57.4061 4.21301 58.224 4.21301C59.7864 4.21301 61.0482 4.70681 62.0093 5.69441H62.0058Z" fill="black"/>
<path id="Vector_6" d="M72.9463 4.76991C73.6873 5.15865 74.271 5.65945 74.6975 6.27582V4.40219H78.0319V17.6262C78.0319 18.8414 77.7873 19.9271 77.2979 20.8831C76.8086 21.8392 76.0746 22.5957 75.0994 23.1595C74.1208 23.7199 72.9394 24 71.5517 24C69.6923 24 68.1648 23.5658 66.9765 22.6972C65.7846 21.8287 65.1135 20.645 64.9527 19.1426H68.2417C68.4165 19.7415 68.7905 20.2212 69.3637 20.575C69.9369 20.9287 70.636 21.1073 71.4574 21.1073C72.4186 21.1073 73.198 20.8201 73.7992 20.2423C74.3969 19.6644 74.6975 18.7924 74.6975 17.6227V15.5844C74.271 16.2008 73.6838 16.7156 72.9359 17.1254C72.1879 17.5351 71.3315 17.7417 70.3703 17.7417C69.2658 17.7417 68.2592 17.4581 67.3435 16.8872C66.4277 16.3199 65.7077 15.5179 65.1799 14.4813C64.6521 13.4482 64.3865 12.2574 64.3865 10.9161C64.3865 9.57482 64.6486 8.41211 65.1799 7.38599C65.7077 6.35987 66.4242 5.56839 67.333 5.01506C68.2382 4.46173 69.2519 4.18506 70.3738 4.18506C71.3525 4.18506 72.2088 4.37767 72.9533 4.76641L72.9463 4.76991ZM74.2221 8.8919C73.9075 8.31405 73.4811 7.87279 72.9463 7.5646C72.4116 7.25641 71.8349 7.10232 71.2197 7.10232C70.6045 7.10232 70.0383 7.25291 69.5175 7.55409C68.9967 7.85528 68.5738 8.29304 68.2522 8.87089C67.9272 9.44874 67.7664 10.1317 67.7664 10.9196C67.7664 11.7076 67.9272 12.401 68.2522 12.9929C68.5738 13.5847 69.0002 14.04 69.528 14.3552C70.0558 14.6704 70.6185 14.828 71.2197 14.828C71.8209 14.828 72.4116 14.6739 72.9463 14.3657C73.4811 14.0575 73.9075 13.6163 74.2221 13.0384C74.5367 12.4606 74.694 11.7706 74.694 10.9652C74.694 10.1597 74.5367 9.46975 74.2221 8.8919Z" fill="black"/>
<path id="Vector_7" d="M47.9342 3.28498C48.8395 3.28498 49.5735 2.54962 49.5735 1.64249C49.5735 0.735369 48.8395 0 47.9342 0C47.0288 0 46.2949 0.735369 46.2949 1.64249C46.2949 2.54962 47.0288 3.28498 47.9342 3.28498Z" fill="#4171FF"/>
<path id="Vector_8" d="M40.7826 17.5351C39.5837 17.5351 38.4512 16.8977 37.6368 15.7315C36.3016 13.8088 35.8298 10.4573 37.2174 7.44549C36.5393 7.25988 35.7494 7.1373 34.4422 7.1373H33.0825V4.40915H34.4422C36.6861 4.40915 37.8291 4.74886 38.8567 5.10257C39.9926 3.97839 41.5725 2.88223 43.2677 2.05223L44.491 1.45337L45.6864 3.90485L44.4631 4.50371C43.411 5.01852 42.4044 5.65941 41.5795 6.32481C43.7081 7.85874 44.6693 10.5309 44.6378 12.7687C44.6064 15.1536 43.4809 16.9327 41.7018 17.4125C41.3942 17.4966 41.0866 17.5351 40.7861 17.5351H40.7826ZM39.7794 8.40857C38.7658 10.4643 38.979 12.8878 39.8738 14.1731C40.4051 14.9365 40.849 14.8174 40.9958 14.7789C41.6144 14.6143 41.901 13.6337 41.915 12.7337C41.936 11.1472 41.2125 9.31912 39.7794 8.40857Z" fill="#4171FF"/>
</g>
<defs>
<clipPath id="clip0_5597_3203">
<rect width="78" height="24" fill="white" transform="translate(0.0317383)"/>
</clipPath>
</defs>
</svg>
