<svg width="32" height="20" viewBox="0 0 32 20" fill="none" xmlns="http://www.w3.org/2000/svg">
<rect width="32" height="20" rx="10" fill="#ECF1FF"/>
<path d="M8.6199 5.72266H14.4851V6.58203H12.0467V13.5H11.0691V6.58203H8.6199V5.72266ZM16.521 13.5H15.5542V5.72266H16.521V13.5ZM18.0197 5.72266H20.6623C21.2496 5.72266 21.7419 5.83008 22.1394 6.04492C22.5368 6.25977 22.8322 6.5516 23.0256 6.92041C23.219 7.28923 23.3156 7.71354 23.3156 8.19336C23.3156 8.66602 23.219 9.08854 23.0256 9.46094C22.8322 9.83333 22.5386 10.1287 22.1447 10.3472C21.7509 10.5656 21.2603 10.6748 20.6731 10.6748H18.7824V9.81543H20.6301C21.0311 9.81543 21.3606 9.74561 21.6184 9.60596C21.8762 9.46631 22.0642 9.27474 22.1823 9.03125C22.3005 8.78776 22.3596 8.50846 22.3596 8.19336C22.3596 7.87109 22.3005 7.59001 22.1823 7.3501C22.0642 7.11019 21.8744 6.9222 21.613 6.78613C21.3516 6.65007 21.0204 6.58203 20.6194 6.58203H18.9865V13.5H18.0197V5.72266Z" fill="#6284E8"/>
</svg>
