<svg width="20" height="20" viewBox="0 0 20 20" fill="none" xmlns="http://www.w3.org/2000/svg">
<path d="M9.99984 1.66602C5.40817 1.66602 1.6665 5.40768 1.6665 9.99935C1.6665 14.591 5.40817 18.3327 9.99984 18.3327C14.5915 18.3327 18.3332 14.591 18.3332 9.99935C18.3332 5.40768 14.5915 1.66602 9.99984 1.66602ZM13.9832 8.08268L9.25817 12.8077C9.1415 12.9243 8.98317 12.991 8.8165 12.991C8.64984 12.991 8.4915 12.9243 8.37484 12.8077L6.0165 10.4493C5.77484 10.2077 5.77484 9.80768 6.0165 9.56602C6.25817 9.32435 6.65817 9.32435 6.89984 9.56602L8.8165 11.4827L13.0998 7.19935C13.3415 6.95768 13.7415 6.95768 13.9832 7.19935C14.2248 7.44102 14.2248 7.83268 13.9832 8.08268Z" fill="#4171FF"/>
</svg>
