<svg width="16" height="16" viewBox="0 0 16 16" fill="none" xmlns="http://www.w3.org/2000/svg">
<path d="M10.6666 1.33301H5.33325C2.66659 1.33301 1.33325 2.66634 1.33325 5.33301V13.9997C1.33325 14.3663 1.63325 14.6663 1.99992 14.6663H10.6666C13.3333 14.6663 14.6666 13.333 14.6666 10.6663V5.33301C14.6666 2.66634 13.3333 1.33301 10.6666 1.33301Z" stroke="white" stroke-width="1.3" stroke-linecap="round" stroke-linejoin="round"/>
<path d="M8.60661 5.22677L5.14661 8.68677C5.01328 8.8201 4.88661 9.0801 4.85995 9.26677L4.67328 10.5868C4.60661 11.0668 4.93994 11.4001 5.41994 11.3334L6.73993 11.1468C6.9266 11.1201 7.18662 10.9934 7.31995 10.8601L10.78 7.4001C11.3733 6.80677 11.66 6.11343 10.78 5.23343C9.89995 4.34677 9.20661 4.62677 8.60661 5.22677Z" stroke="white" stroke-width="1.3" stroke-miterlimit="10" stroke-linecap="round" stroke-linejoin="round"/>
<path d="M8.11328 5.71973C8.40661 6.76639 9.22661 7.59306 10.2799 7.88639" stroke="white" stroke-width="1.3" stroke-miterlimit="10" stroke-linecap="round" stroke-linejoin="round"/>
</svg>
